<svg version="1.1" xmlns="http://www.w3.org/2000/svg" xmlns:xlink="http://www.w3.org/1999/xlink" width="226.15567" height="132.92759" viewBox="0,0,226.15567,132.92759"><defs><linearGradient x1="318.73417" y1="115.28315" x2="318.73417" y2="123.97442" gradientUnits="userSpaceOnUse" id="color-1"><stop offset="0" stop-color="#ff9447"/><stop offset="1" stop-color="#e1833f"/></linearGradient><linearGradient x1="305.04876" y1="115.25045" x2="305.04876" y2="124.10333" gradientUnits="userSpaceOnUse" id="color-2"><stop offset="0" stop-color="#ff9447"/><stop offset="1" stop-color="#e1833f"/></linearGradient></defs><g transform="translate(-126.95034,-114.05236)"><g data-paper-data="{&quot;isPaintingLayer&quot;:true}" fill-rule="nonzero" stroke-linejoin="miter" stroke-miterlimit="10" stroke-dasharray="" stroke-dashoffset="0" style="mix-blend-mode: normal"><path d="M126.95035,135.65241c0,0 0,-7.28821 0,-10.88236c0,-3.34935 4.77112,-10 10.51108,-10c22.50265,0 167.59295,0 206.17647,0c5.98892,0 9.41176,5.42377 9.41176,8.52941c0,3.73747 0,12.35295 0,12.35295z" fill="#e1833f" stroke="#000000" stroke-width="0" stroke-linecap="butt"/><text transform="translate(134.65323,131.23414) scale(0.36789,0.36789)" font-size="40" xml:space="preserve" fill="#000000" fill-rule="nonzero" stroke="none" stroke-width="1" stroke-linecap="butt" stroke-linejoin="miter" stroke-miterlimit="10" stroke-dasharray="" stroke-dashoffset="0" font-family="Sans Serif" font-weight="normal" text-anchor="start" style="mix-blend-mode: normal"><tspan x="0" dy="0">Meowlesome news✈️</tspan><tspan x="0" dy="48px"> </tspan></text><path d="M128.86022,245.22995v-109.01961h222.4958v109.01961z" fill="#ffffff" stroke="#e1833f" stroke-width="3.5" stroke-linecap="butt"/><path d="M325.41209,124.46414l0.0607,-9.57849c0,0 6.72314,-0.10652 18.24944,-0.10652c2.11707,0 3.91348,0.67775 5.35138,1.69128c0.00412,0.0029 -0.05141,-0.04354 -0.03354,-0.0196c1.96092,1.7791 1.06054,7.42951 -0.19093,8.0835c-6.64348,0.3285 -23.43706,-0.07017 -23.43706,-0.07017z" fill="#e05e00" stroke="#000000" stroke-width="0" stroke-linecap="butt"/><path d="M312.00597,123.97442v-8.69127h13.45638v8.69127z" fill="url(#color-1)" stroke="#ff9447" stroke-width="1" stroke-linecap="butt"/><path d="M316.87639,121.34271v-3.12121h4.09091v3.12121z" fill="none" stroke="#ffffff" stroke-width="1" stroke-linecap="butt"/><path d="M298.12714,115.25866l13.84324,-0.00821l-0.09081,8.73185c0,0 -11.16554,0.10463 -12.91102,0.12099c-0.44401,0.00416 -0.83568,-0.36504 -0.83594,-0.75342c-0.00086,-1.26618 -0.00546,-8.09122 -0.00546,-8.09122z" data-paper-data="{&quot;index&quot;:null}" fill="url(#color-2)" stroke="#ff9447" stroke-width="1" stroke-linecap="butt"/><path d="M307.20966,121.00214h-3.90558" fill="none" stroke="#ffffff" stroke-width="1" stroke-linecap="round"/><path d="M336.3895,118.09569l2.92398,3.36257" fill="none" stroke="#ffffff" stroke-width="1" stroke-linecap="round"/><path d="M339.66434,117.94949l-3.04094,3.59649" fill="none" stroke="#ffffff" stroke-width="1" stroke-linecap="round"/><text transform="translate(131.39623,149.34019) scale(0.31184,0.31184)" font-size="40" xml:space="preserve" fill="#000000" fill-rule="nonzero" stroke="none" stroke-width="1" stroke-linecap="butt" stroke-linejoin="miter" stroke-miterlimit="10" stroke-dasharray="" stroke-dashoffset="0" font-family="Sans Serif" font-weight="normal" text-anchor="start" style="mix-blend-mode: normal"><tspan x="0" dy="0">New dog army detected! Doge HQ</tspan><tspan x="0" dy="48px">potential threat!</tspan><tspan x="0" dy="48px"> </tspan><tspan x="0" dy="48px">We would like some active people to</tspan><tspan x="0" dy="48px">join (still NO dogs)</tspan><tspan x="0" dy="48px"> </tspan><tspan x="0" dy="48px">Status: inactive(ish), peace</tspan></text></g></g></svg>