<svg version="1.1" xmlns="http://www.w3.org/2000/svg" xmlns:xlink="http://www.w3.org/1999/xlink" width="144.02745" height="57.08098" viewBox="0,0,144.02745,57.08098"><defs><radialGradient cx="219.77993" cy="177.72191" r="15.63754" gradientUnits="userSpaceOnUse" id="color-1"><stop offset="0" stop-color="#f09145"/><stop offset="1" stop-color="#392b20"/></radialGradient><radialGradient cx="219.77993" cy="177.72191" r="15.63753" gradientUnits="userSpaceOnUse" id="color-2"><stop offset="0" stop-color="#533925"/><stop offset="1" stop-color="#392b20"/></radialGradient><radialGradient cx="186.57702" cy="171.33461" r="16.84074" gradientUnits="userSpaceOnUse" id="color-3"><stop offset="0" stop-color="#f09145"/><stop offset="1" stop-color="#392b20"/></radialGradient><radialGradient cx="186.57701" cy="171.3346" r="16.84074" gradientUnits="userSpaceOnUse" id="color-4"><stop offset="0" stop-color="#533925"/><stop offset="1" stop-color="#392b20"/></radialGradient><radialGradient cx="246.88246" cy="170.70199" r="17.89303" gradientUnits="userSpaceOnUse" id="color-5"><stop offset="0" stop-color="#f09145"/><stop offset="1" stop-color="#392b20"/></radialGradient><radialGradient cx="246.88246" cy="170.70199" r="17.89303" gradientUnits="userSpaceOnUse" id="color-6"><stop offset="0" stop-color="#533925"/><stop offset="1" stop-color="#392b20"/></radialGradient><radialGradient cx="283.99561" cy="178.48099" r="20.50088" gradientUnits="userSpaceOnUse" id="color-7"><stop offset="0" stop-color="#f09145"/><stop offset="1" stop-color="#392b20"/></radialGradient><radialGradient cx="283.9956" cy="178.48099" r="20.50088" gradientUnits="userSpaceOnUse" id="color-8"><stop offset="0" stop-color="#533925"/><stop offset="1" stop-color="#392b20"/></radialGradient><radialGradient cx="219.67684" cy="177.61881" r="15.63754" gradientUnits="userSpaceOnUse" id="color-9"><stop offset="0" stop-color="#f09145"/><stop offset="1" stop-color="#392b20"/></radialGradient><radialGradient cx="186.47392" cy="171.23151" r="16.84075" gradientUnits="userSpaceOnUse" id="color-10"><stop offset="0" stop-color="#f09145"/><stop offset="1" stop-color="#392b20"/></radialGradient><radialGradient cx="246.77936" cy="170.59889" r="17.89303" gradientUnits="userSpaceOnUse" id="color-11"><stop offset="0" stop-color="#f09145"/><stop offset="1" stop-color="#392b20"/></radialGradient><radialGradient cx="283.89251" cy="178.37789" r="20.50088" gradientUnits="userSpaceOnUse" id="color-12"><stop offset="0" stop-color="#f09145"/><stop offset="1" stop-color="#392b20"/></radialGradient><radialGradient cx="173.74494" cy="174.051" r="2.21843" gradientUnits="userSpaceOnUse" id="color-13"><stop offset="0" stop-color="#483323"/><stop offset="1" stop-color="#392b20"/></radialGradient><radialGradient cx="174.17157" cy="168.93154" r="1.75" gradientUnits="userSpaceOnUse" id="color-14"><stop offset="0" stop-color="#483323"/><stop offset="1" stop-color="#392b20"/></radialGradient><radialGradient cx="200.7074" cy="173.53905" r="2.21843" gradientUnits="userSpaceOnUse" id="color-15"><stop offset="0" stop-color="#483323"/><stop offset="1" stop-color="#392b20"/></radialGradient><radialGradient cx="199.08624" cy="167.90765" r="1.75" gradientUnits="userSpaceOnUse" id="color-16"><stop offset="0" stop-color="#483323"/><stop offset="1" stop-color="#392b20"/></radialGradient><radialGradient cx="207.78931" cy="180.87694" r="1.96246" gradientUnits="userSpaceOnUse" id="color-17"><stop offset="0" stop-color="#483323"/><stop offset="1" stop-color="#392b20"/></radialGradient><radialGradient cx="207.70399" cy="176.44008" r="1.75" gradientUnits="userSpaceOnUse" id="color-18"><stop offset="0" stop-color="#483323"/><stop offset="1" stop-color="#392b20"/></radialGradient><radialGradient cx="222.71712" cy="179.63494" r="2.90103" gradientUnits="userSpaceOnUse" id="color-19"><stop offset="0" stop-color="#483323"/><stop offset="1" stop-color="#392b20"/></radialGradient><radialGradient cx="236.88488" cy="173.28308" r="1.75" gradientUnits="userSpaceOnUse" id="color-20"><stop offset="0" stop-color="#483323"/><stop offset="1" stop-color="#392b20"/></radialGradient><radialGradient cx="236.88488" cy="166.37182" r="1.87713" gradientUnits="userSpaceOnUse" id="color-21"><stop offset="0" stop-color="#483323"/><stop offset="1" stop-color="#392b20"/></radialGradient><radialGradient cx="266.06577" cy="186.67898" r="2.73038" gradientUnits="userSpaceOnUse" id="color-22"><stop offset="0" stop-color="#483323"/><stop offset="1" stop-color="#392b20"/></radialGradient><radialGradient cx="265.98045" cy="179.76772" r="2.64505" gradientUnits="userSpaceOnUse" id="color-23"><stop offset="0" stop-color="#483323"/><stop offset="1" stop-color="#392b20"/></radialGradient><radialGradient cx="302.75519" cy="183.35134" r="2.73037" gradientUnits="userSpaceOnUse" id="color-24"><stop offset="0" stop-color="#483323"/><stop offset="1" stop-color="#392b20"/></radialGradient><radialGradient cx="305.48557" cy="174.73359" r="4.77816" gradientUnits="userSpaceOnUse" id="color-25"><stop offset="0" stop-color="#483323"/><stop offset="1" stop-color="#392b20"/></radialGradient><radialGradient cx="222.5298" cy="175.16107" r="2.90103" gradientUnits="userSpaceOnUse" id="color-26"><stop offset="0" stop-color="#483323"/><stop offset="1" stop-color="#392b20"/></radialGradient></defs><g transform="translate(-167.98628,-151.45951)"><g data-paper-data="{&quot;isPaintingLayer&quot;:true}" fill-rule="nonzero" stroke-linejoin="miter" stroke-miterlimit="10" stroke-dasharray="" stroke-dashoffset="0" style="mix-blend-mode: normal"><g><path d="M257.88347,170.29763l0.28653,-7.37822l4.44126,7.37822z" fill="#392b20" stroke="none" stroke-width="0" stroke-linecap="butt"/><path d="M242.76886,167.50394v-8.59599h8.38109v8.59599z" fill="#392b20" stroke="#392b20" stroke-width="3.5" stroke-linecap="butt"/><path d="M270.88409,177.05023l-1.07758,-10.02155l4.63362,10.66811z" fill="#392b20" stroke="none" stroke-width="0" stroke-linecap="butt"/><path d="M290.3884,194.18385v-9.375h10.56034v9.375z" fill="#392b20" stroke="none" stroke-width="0" stroke-linecap="butt"/><path d="M278.21168,198.92523v-6.57327h4.31034v6.57327z" fill="#392b20" stroke="#392b20" stroke-width="0.5" stroke-linecap="butt"/><path d="M240.60391,192.02868l-3.34052,-8.18966l16.27155,-16.16379l3.55603,25.75431z" fill="#392b20" stroke="none" stroke-width="0" stroke-linecap="butt"/><path d="M217.86684,200.32609v-7.97414h14.54741v7.97414z" fill="#392b20" stroke="none" stroke-width="0" stroke-linecap="butt"/><path d="M229.28927,197.84765l-2.15517,-4.63362l6.03448,-5.17241l4.4181,8.94397z" fill="#392b20" stroke="none" stroke-width="0" stroke-linecap="butt"/><path d="M191.1427,175.64937v-10.23707h3.77155v10.23707z" fill="#392b20" stroke="none" stroke-width="0" stroke-linecap="butt"/><path d="M310.80898,174.15891l-4.91573,-11.51685" fill="none" stroke="#392b20" stroke-width="0.5" stroke-linecap="round"/><g fill="#392b20" stroke="#392b20" stroke-linecap="butt"><g stroke-width="3.5"><path d="M223.96242,188.74773c0.06546,1.91348 -2.09438,1.98737 -2.09438,1.98737l0.17254,-0.0867c-1.41502,0.42243 -2.8765,0.73397 -4.35098,0.94267c0.13167,1.32859 0.29618,2.6316 0.47339,3.88117c0.17212,1.21367 0.84246,4.64057 2.0069,5.3713c0.32155,0.20179 0.74903,-0.25228 1.14221,-0.29359c0.81189,-0.08531 1.63287,-0.05586 2.4493,-0.08379c2.27569,-0.07785 10.12498,0.81795 7.38562,-2.54149c0,0 -1.10613,-1.6368 0.75012,-2.63066c1.85625,-0.99385 2.96238,0.64294 2.96238,0.64294c0.48057,0.78768 1.33022,1.47077 1.4417,2.36304c0.79022,6.32505 -7.75518,5.83392 -12.4089,5.99312c-0.8973,0.0307 -5.22961,0.24159 -5.76036,-0.05746c-1.9635,-1.10634 -3.05875,-4.1419 -3.67676,-6.00269c-1.81662,-5.46972 -1.80998,-13.04112 -0.86771,-18.66245c0.619,-1.96429 0.80273,-3.70856 2.9963,-5.02229c2.63995,-1.58106 9.84971,-1.87685 12.75158,-0.75553c1.02479,0.39599 1.81721,1.15149 2.72581,1.72724l0.06132,-0.02214c0,0 1.96109,0.78965 1.05372,2.53416c-0.90736,1.74451 -2.86844,0.95486 -2.86844,0.95486l-0.84285,-0.38621c-2.4006,-1.66978 -2.96303,-1.45201 -6.05179,-1.34815c-0.83632,0.02812 -3.5028,-0.02755 -4.39425,0.44172c-0.78171,0.4115 -1.04501,2.06826 -1.20054,2.62617c-0.40623,2.35267 -0.49408,4.89446 -0.39783,7.43948c1.10393,-0.16663 2.19658,-0.40919 3.25342,-0.73452l1.06319,-0.11716c0,0 2.15983,-0.07389 2.22529,1.83959z"/><path d="M176.02078,197.27741c-2.24143,-1.10724 -1.1342,-3.34867 -1.1342,-3.34867l0.68931,-1.27431c0.79585,-3.08666 2.21695,-5.88917 3.07661,-8.93048c1.07232,-3.79363 0.90725,-8.93827 3.43409,-12.23369c1.29766,-1.69237 2.66894,-4.24715 4.80147,-4.22828c1.72135,0.01524 2.04504,2.78298 2.86578,4.29614c0.6349,1.17054 1.48114,2.97836 1.87895,4.71325c1.28906,-1.91849 2.56083,-3.55587 4.06334,-5.13845l-0.27917,-0.19959l1.92985,-2.69943c0.4777,-0.69114 1.29253,-1.12528 2.19298,-1.07667c1.22709,0.06624 2.1996,1.00669 2.34617,2.18478l0.36916,2.55553l-0.08507,0.01228l0.10825,0.23327c-0.30418,4.88135 2.26308,8.96222 3.53155,13.56007c0.77398,2.80545 1.2718,5.44414 2.31802,8.18283c0,0 0.89072,2.33594 -1.44523,3.22665c-2.33595,0.89072 -3.22665,-1.44523 -3.22665,-1.44523c-1.09007,-2.86368 -1.65525,-5.66323 -2.45463,-8.59369c-1.03147,-3.78124 -2.75404,-7.15869 -3.43998,-10.87936c-0.85783,1.24465 -2.41594,3.76466 -3.12779,4.90361l-0.83826,2.52795c-0.32892,1.07202 -1.35457,1.82424 -2.52481,1.76105c-0.92526,-0.04995 -1.70578,-0.59695 -2.0966,-1.36807l-1.38378,-2.61643l0.04809,-0.02543c-0.06008,-0.08492 -0.11884,-0.17088 -0.17611,-0.258c-1.01632,-1.54569 -0.95928,-3.57594 -1.55352,-5.32778c-0.01639,-0.0483 -0.03382,-0.09645 -0.05213,-0.14449c-0.27455,0.57879 -0.55002,1.14337 -0.70361,1.62322c-0.81313,2.54036 -0.96275,5.25527 -1.69093,7.82126c-0.85515,3.01342 -2.26304,5.75451 -3.04311,8.80664l-1.04935,2.24533c0,0 -1.10724,2.24144 -3.34867,1.1342z"/><path d="M250.77371,169.21512c-4.39998,3.02983 -3.81844,12.07045 -4.17883,16.85136c-0.13412,1.77918 -0.12185,3.73082 0.71979,5.30409c0.38303,0.71599 0.85895,1.42381 1.50541,1.91518c4.74654,3.60783 6.65207,-3.21174 7.56932,-6.98081c0.86229,-3.54322 0.99453,-6.99388 0.74735,-10.58719c-0.7496,-3.10018 -3.00933,-5.2973 -5.97145,-6.30804zM252.64003,164.57291l0.25841,0.14678c4.83421,1.88006 7.76273,5.18215 9.16963,10.17219c0.30883,4.31676 0.22331,8.38752 -0.83319,12.64645c-0.91893,3.70436 -3.26562,10.47865 -7.44928,11.82216c-4.03531,1.29587 -9.05218,-2.34069 -10.83616,-5.55174c-2.96995,-5.34574 -1.30239,-14.52563 0.05479,-20.26004c0.59744,-2.52432 1.71922,-5.98608 3.61846,-7.87584c0.83817,-0.83398 2.11417,-1.05948 3.17125,-1.58922c0,0 1.71071,-0.78752 2.84608,0.48926z"/><path d="M306.49443,172.18957c2.4769,-0.3391 2.81599,2.13779 2.81599,2.13779l0.0629,1.23673c-0.60528,3.81963 -1.78221,7.46834 -2.6913,11.22562c-0.84825,3.50583 -1.78614,7.90731 -4.05638,10.81521c-3.23463,4.14316 -7.71818,3.77696 -11.25086,0.46781c-1.48636,-1.39231 -2.40227,-3.36683 -3.26743,-5.20514c-0.48342,2.89851 -1.88882,6.18052 -2.65945,8.43545c-0.36469,1.06711 -0.34924,2.35797 -1.10027,3.1992c-0.98819,1.10688 -2.33766,2.12053 -3.81042,2.30128c-4.13031,0.50689 -5.04718,-1.81454 -6.25652,-4.81834c-1.10834,-2.75293 -1.54768,-5.94649 -2.5063,-8.78006c-1.49974,-4.43304 -2.74591,-8.35807 -3.38716,-13.01498c0,0 -0.3391,-2.47689 2.13779,-2.816c2.4769,-0.3391 2.816,2.13779 2.816,2.13779c0.87851,6.45671 3.41401,12.23254 5.11306,18.49271c0.00838,0.03085 0.49718,4.07845 1.40492,3.8451c0.7298,-0.18761 1.6584,-4.47816 1.73291,-4.73075c0.75076,-2.54511 0.86554,-5.50995 1.65064,-7.96199c0.58083,-1.81408 0.51318,-4.62538 2.3224,-5.22119c1.77269,-0.58379 3.37912,1.66994 4.80518,2.87393c0.75435,0.63687 1.04801,1.6734 1.57201,2.5101c0.79152,1.61442 2.16097,5.47776 4.27182,6.36687c2.30284,0.96998 3.61571,-3.683 3.94942,-4.48543c2.08844,-5.02179 3.43808,-11.02987 4.27017,-16.41102l-0.07694,0.21533c0,0 -0.3391,-2.47689 2.1378,-2.816z"/></g><g stroke-width="0.5"><path d="M223.85932,188.64464c0.06546,1.91348 -2.09438,1.98737 -2.09438,1.98737l0.17254,-0.08669c-1.41502,0.42243 -2.8765,0.73396 -4.35098,0.94267c0.13167,1.32859 0.29618,2.6316 0.47339,3.88117c0.17212,1.21367 0.84246,4.64057 2.0069,5.3713c0.32155,0.20179 0.74903,-0.25228 1.14221,-0.29359c0.81189,-0.08531 1.63287,-0.05586 2.4493,-0.08379c2.27569,-0.07785 10.12498,0.81795 7.38562,-2.54149c0,0 -1.10613,-1.63681 0.75012,-2.63066c1.85625,-0.99385 2.96238,0.64295 2.96238,0.64295c0.48057,0.78768 1.33022,1.47077 1.4417,2.36304c0.79022,6.32505 -7.75518,5.83392 -12.4089,5.99312c-0.8973,0.0307 -5.22962,0.24159 -5.76036,-0.05746c-1.9635,-1.10634 -3.05874,-4.1419 -3.67675,-6.00269c-1.81662,-5.46972 -1.80998,-13.04112 -0.86771,-18.66245c0.619,-1.96429 0.80272,-3.70856 2.99629,-5.02228c2.63995,-1.58106 9.84972,-1.87685 12.75159,-0.75553c1.02479,0.39599 1.81721,1.15149 2.72581,1.72724l0.06132,-0.02214c0,0 1.96109,0.78965 1.05372,2.53416c-0.90736,1.74451 -2.86845,0.95486 -2.86845,0.95486l-0.84284,-0.38621c-2.4006,-1.66978 -2.96303,-1.45201 -6.05179,-1.34815c-0.83632,0.02812 -3.5028,-0.02754 -4.39425,0.44172c-0.78171,0.4115 -1.04502,2.06826 -1.20055,2.62617c-0.40623,2.35267 -0.49407,4.89446 -0.39782,7.43948c1.10393,-0.16663 2.19658,-0.40919 3.25342,-0.73452l1.06319,-0.11716c0,0 2.15983,-0.07389 2.22529,1.83959z"/><path d="M175.91769,197.17431c-2.24143,-1.10724 -1.1342,-3.34867 -1.1342,-3.34867l0.68931,-1.27431c0.79585,-3.08666 2.21695,-5.88917 3.0766,-8.93048c1.07232,-3.79363 0.90726,-8.93828 3.43409,-12.23369c1.29766,-1.69237 2.66894,-4.24715 4.80147,-4.22827c1.72135,0.01524 2.04504,2.78297 2.86578,4.29614c0.6349,1.17054 1.48114,2.97836 1.87895,4.71325c1.28906,-1.91849 2.56083,-3.55586 4.06334,-5.13845l-0.27918,-0.19959l1.92986,-2.69944c0.4777,-0.69114 1.29253,-1.12527 2.19298,-1.07666c1.22709,0.06624 2.1996,1.00669 2.34617,2.18478l0.36915,2.55553l-0.08506,0.01229l0.10825,0.23327c-0.30418,4.88135 2.26308,8.96222 3.53155,13.56007c0.77398,2.80545 1.2718,5.44413 2.31802,8.18283c0,0 0.89072,2.33594 -1.44523,3.22666c-2.33595,0.89072 -3.22665,-1.44523 -3.22665,-1.44523c-1.09007,-2.86368 -1.65525,-5.66323 -2.45463,-8.59369c-1.03147,-3.78124 -2.75404,-7.1587 -3.43998,-10.87937c-0.85783,1.24465 -2.41594,3.76466 -3.12779,4.90361l-0.83826,2.52795c-0.32892,1.07202 -1.35457,1.82424 -2.52481,1.76105c-0.92526,-0.04995 -1.70578,-0.59694 -2.09661,-1.36807l-1.38378,-2.61643l0.04809,-0.02543c-0.06008,-0.08492 -0.11883,-0.17088 -0.17611,-0.258c-1.01632,-1.54569 -0.95928,-3.57594 -1.55352,-5.32778c-0.01639,-0.0483 -0.03382,-0.09646 -0.05213,-0.14449c-0.27455,0.57879 -0.55002,1.14337 -0.70361,1.62322c-0.81313,2.54036 -0.96275,5.25527 -1.69093,7.82127c-0.85515,3.01342 -2.26304,5.75451 -3.04311,8.80664l-1.04935,2.24533c0,0 -1.10724,2.24143 -3.34867,1.13419z"/><path d="M250.67062,169.11202c-4.39998,3.02983 -3.81844,12.07045 -4.17883,16.85136c-0.13412,1.77918 -0.12185,3.73082 0.71979,5.30409c0.38303,0.71599 0.85896,1.42381 1.50541,1.91518c4.74654,3.60783 6.65207,-3.21174 7.56932,-6.98081c0.86229,-3.54322 0.99453,-6.99388 0.74734,-10.58719c-0.7496,-3.10018 -3.00932,-5.29731 -5.97144,-6.30804zM252.53693,164.46982l0.25841,0.14678c4.83421,1.88006 7.76273,5.18215 9.16963,10.17219c0.30883,4.31676 0.22331,8.38752 -0.83319,12.64645c-0.91893,3.70436 -3.26562,10.47865 -7.44928,11.82216c-4.03531,1.29587 -9.05218,-2.34069 -10.83616,-5.55174c-2.96995,-5.34574 -1.30239,-14.52563 0.05479,-20.26004c0.59744,-2.52432 1.71922,-5.98608 3.61846,-7.87583c0.83817,-0.83398 2.11417,-1.05948 3.17125,-1.58922c0,0 1.71071,-0.78752 2.84608,0.48926z"/><path d="M306.39134,172.08647c2.4769,-0.3391 2.81599,2.13779 2.81599,2.13779l0.0629,1.23673c-0.60528,3.81963 -1.78221,7.46834 -2.6913,11.22562c-0.84825,3.50583 -1.78614,7.90731 -4.05638,10.81521c-3.23463,4.14316 -7.71818,3.77696 -11.25086,0.46781c-1.48636,-1.39231 -2.40227,-3.36683 -3.26743,-5.20514c-0.48342,2.89851 -1.88882,6.18052 -2.65945,8.43545c-0.36469,1.06711 -0.34924,2.35797 -1.10027,3.1992c-0.98819,1.10688 -2.33767,2.12053 -3.81043,2.30128c-4.13031,0.50689 -5.04717,-1.81454 -6.25651,-4.81834c-1.10834,-2.75293 -1.54768,-5.94649 -2.5063,-8.78007c-1.49974,-4.43304 -2.74591,-8.35807 -3.38716,-13.01498c0,0 -0.3391,-2.47689 2.13779,-2.816c2.4769,-0.3391 2.816,2.13779 2.816,2.13779c0.87851,6.45671 3.41401,12.23254 5.11307,18.49271c0.00838,0.03085 0.49718,4.07845 1.40492,3.8451c0.7298,-0.18761 1.6584,-4.47816 1.73291,-4.73075c0.75076,-2.54511 0.86554,-5.50995 1.65064,-7.962c0.58083,-1.81408 0.51318,-4.62537 2.3224,-5.22119c1.77269,-0.58379 3.37912,1.66994 4.80518,2.87393c0.75435,0.63687 1.04801,1.6734 1.57201,2.5101c0.79152,1.61442 2.16097,5.47776 4.27182,6.36687c2.30284,0.96998 3.61572,-3.683 3.94943,-4.48543c2.08844,-5.02179 3.43808,-11.02986 4.27017,-16.41102l-0.07694,0.21533c0,0 -0.3391,-2.47689 2.1378,-2.816z"/></g></g><path d="M176.40336,186.28002l4.43686,-2.38908" fill="#392b20" stroke="#392b20" stroke-width="3.5" stroke-linecap="round"/><path d="M177.59789,178.60084l2.90103,2.73038" fill="#392b20" stroke="#392b20" stroke-width="3.5" stroke-linecap="round"/><path d="M207.80268,185.25613l-4.43686,-1.36519" fill="#392b20" stroke="#392b20" stroke-width="3.5" stroke-linecap="round"/><path d="M205.58424,177.7476l-3.24232,2.38908" fill="#392b20" stroke="#392b20" stroke-width="3.5" stroke-linecap="round"/><path d="M211.045,186.28002l3.07167,2.38908" fill="#392b20" stroke="#392b20" stroke-width="3.5" stroke-linecap="round"/><path d="M230.49499,191.60799l-5.80205,-1.87713" fill="#392b20" stroke="#392b20" stroke-width="3.5" stroke-linecap="round"/><path d="M240.05524,185.42678l3.41296,-2.21843" fill="#392b20" stroke="#392b20" stroke-width="3.5" stroke-linecap="round"/><path d="M243.63885,178.60084l-3.75427,-2.38908" fill="#392b20" stroke="#392b20" stroke-width="3.5" stroke-linecap="round"/><path d="M268.21224,189.18105l5.2901,3.24232" fill="#392b20" stroke="#392b20" stroke-width="3.5" stroke-linecap="round"/><path d="M176.4354,186.31624l4.43686,-2.38908" fill="#392b20" stroke="#392b20" stroke-width="1" stroke-linecap="round"/><path d="M180.53096,181.36744l-2.90102,-2.73038" fill="#392b20" stroke="#392b20" stroke-width="1" stroke-linecap="round"/><path d="M207.83472,185.29235l-4.43686,-1.36519" fill="#392b20" stroke="#392b20" stroke-width="1" stroke-linecap="round"/><path d="M202.37396,180.1729l3.24232,-2.38908" fill="#392b20" stroke="#392b20" stroke-width="1" stroke-linecap="round"/><path d="M214.66065,190.92375l-3.92491,2.04779" fill="#392b20" stroke="#392b20" stroke-width="1" stroke-linecap="round"/><path d="M214.14871,188.70532l-3.07167,-2.38908" fill="#392b20" stroke="#392b20" stroke-width="1" stroke-linecap="round"/><path d="M224.72498,189.76708l5.80204,1.87713" fill="#392b20" stroke="#392b20" stroke-width="1" stroke-linecap="round"/><path d="M243.50024,183.24457l-3.41297,2.21843" fill="#392b20" stroke="#392b20" stroke-width="1.5" stroke-linecap="round"/><path d="M239.91662,176.24799l3.75427,2.38907" fill="#392b20" stroke="#392b20" stroke-width="1.5" stroke-linecap="round"/><path d="M273.53438,192.45959l-5.2901,-3.24232" fill="#392b20" stroke="#392b20" stroke-width="1.5" stroke-linecap="round"/><path d="M230.30767,185.25699l-5.80205,1.87713" data-paper-data="{&quot;index&quot;:null}" fill="#392b20" stroke="#392b20" stroke-width="3.5" stroke-linecap="round"/><path d="M230.33971,185.22077l-5.80204,1.87713" data-paper-data="{&quot;index&quot;:null}" fill="#392b20" stroke="#392b20" stroke-width="1" stroke-linecap="round"/><g><g stroke-linecap="butt"><g stroke-width="3.5"><path d="M219.08557,177.71325c0.06546,1.91348 -2.09438,1.98737 -2.09438,1.98737l0.17253,-0.0867c-1.41502,0.42243 -2.8765,0.73397 -4.35098,0.94267c0.13167,1.32859 0.29618,2.6316 0.47339,3.88117c0.17212,1.21367 0.84246,4.64057 2.00691,5.3713c0.32155,0.20179 0.74903,-0.25228 1.1422,-0.29359c0.81189,-0.08531 1.63288,-0.05586 2.44931,-0.08379c2.27569,-0.07785 10.12498,0.81795 7.38562,-2.54149c0,0 -1.10612,-1.6368 0.75012,-2.63066c1.85625,-0.99385 2.96237,0.64294 2.96237,0.64294c0.48057,0.78768 1.33022,1.47077 1.4417,2.36304c0.79022,6.32505 -7.75518,5.83392 -12.4089,5.99312c-0.8973,0.03069 -5.22961,0.24159 -5.76036,-0.05746c-1.9635,-1.10634 -3.05875,-4.14191 -3.67676,-6.0027c-1.81662,-5.46972 -1.80998,-13.04112 -0.86771,-18.66245c0.619,-1.96429 0.80273,-3.70856 2.9963,-5.02228c2.63995,-1.58106 9.84971,-1.87686 12.75158,-0.75553c1.02479,0.39599 1.81721,1.15149 2.72581,1.72724l0.06132,-0.02214c0,0 1.96109,0.78965 1.05372,2.53416c-0.90736,1.74451 -2.86844,0.95486 -2.86844,0.95486l-0.84285,-0.38621c-2.4006,-1.66978 -2.96303,-1.45201 -6.05179,-1.34815c-0.83632,0.02812 -3.5028,-0.02754 -4.39425,0.44172c-0.78171,0.4115 -1.04501,2.06826 -1.20054,2.62617c-0.40623,2.35267 -0.49408,4.89446 -0.39783,7.43948c1.10393,-0.16663 2.19658,-0.40919 3.25342,-0.73452l1.06319,-0.11716c0,0 2.15984,-0.07389 2.2253,1.83959z" fill="url(#color-1)" stroke="url(#color-2)"/><path d="M171.14394,186.24292c-2.24143,-1.10724 -1.1342,-3.34867 -1.1342,-3.34867l0.68931,-1.27431c0.79585,-3.08666 2.21695,-5.88917 3.07661,-8.93048c1.07232,-3.79363 0.90725,-8.93828 3.43409,-12.23369c1.29766,-1.69237 2.66894,-4.24715 4.80147,-4.22827c1.72135,0.01524 2.04504,2.78297 2.86578,4.29614c0.6349,1.17054 1.48114,2.97836 1.87895,4.71325c1.28906,-1.91849 2.56083,-3.55587 4.06334,-5.13845l-0.27917,-0.19959l1.92986,-2.69943c0.4777,-0.69114 1.29253,-1.12528 2.19297,-1.07667c1.22709,0.06624 2.1996,1.00669 2.34617,2.18478l0.36916,2.55553l-0.08507,0.01228l0.10825,0.23327c-0.30418,4.88135 2.26308,8.96222 3.53155,13.56007c0.77398,2.80545 1.2718,5.44414 2.31802,8.18283c0,0 0.89072,2.33594 -1.44523,3.22665c-2.33595,0.89072 -3.22665,-1.44522 -3.22665,-1.44522c-1.09007,-2.86368 -1.65525,-5.66323 -2.45463,-8.59369c-1.03147,-3.78124 -2.75404,-7.1587 -3.43998,-10.87937c-0.85783,1.24465 -2.41594,3.76466 -3.12779,4.90361l-0.83826,2.52795c-0.32892,1.07202 -1.35457,1.82424 -2.52481,1.76105c-0.92526,-0.04995 -1.70578,-0.59695 -2.0966,-1.36807l-1.38378,-2.61643l0.04809,-0.02543c-0.06008,-0.08492 -0.11884,-0.17089 -0.17611,-0.258c-1.01632,-1.54569 -0.95928,-3.57594 -1.55352,-5.32778c-0.01639,-0.0483 -0.03382,-0.09646 -0.05213,-0.14449c-0.27455,0.57879 -0.55002,1.14337 -0.70361,1.62322c-0.81313,2.54036 -0.96275,5.25527 -1.69093,7.82126c-0.85515,3.01342 -2.26304,5.75451 -3.04311,8.80664l-1.04935,2.24533c0,0 -1.10724,2.24144 -3.34867,1.1342z" fill="url(#color-3)" stroke="url(#color-4)"/><path d="M245.89687,158.18063c-4.39998,3.02983 -3.81844,12.07045 -4.17883,16.85136c-0.13412,1.77918 -0.12185,3.73082 0.71979,5.30409c0.38303,0.71599 0.85895,1.42381 1.50541,1.91518c4.74654,3.60783 6.65207,-3.21175 7.56932,-6.98081c0.86229,-3.54322 0.99453,-6.99387 0.74735,-10.58719c-0.7496,-3.10018 -3.00933,-5.29731 -5.97145,-6.30804zM247.76318,153.53842l0.25842,0.14678c4.83421,1.88006 7.76272,5.18215 9.16963,10.17219c0.30883,4.31676 0.22331,8.38752 -0.83318,12.64645c-0.91893,3.70436 -3.26563,10.47865 -7.44928,11.82216c-4.03531,1.29587 -9.05218,-2.34069 -10.83616,-5.55174c-2.96995,-5.34574 -1.30238,-14.52563 0.0548,-20.26004c0.59744,-2.52432 1.71922,-5.98608 3.61846,-7.87583c0.83817,-0.83398 2.11416,-1.05949 3.17125,-1.58923c0,0 1.71071,-0.78752 2.84608,0.48926z" fill="url(#color-5)" stroke="url(#color-6)"/><path d="M301.61759,161.15508c2.4769,-0.3391 2.81599,2.13779 2.81599,2.13779l0.0629,1.23673c-0.60528,3.81963 -1.78221,7.46835 -2.6913,11.22562c-0.84825,3.50583 -1.78614,7.90732 -4.05638,10.81521c-3.23463,4.14316 -7.71818,3.77696 -11.25086,0.46781c-1.48636,-1.39231 -2.40227,-3.36683 -3.26743,-5.20514c-0.48342,2.89851 -1.88882,6.18051 -2.65945,8.43544c-0.36469,1.06711 -0.34924,2.35797 -1.10027,3.1992c-0.98819,1.10688 -2.33766,2.12053 -3.81042,2.30128c-4.13031,0.50689 -5.04718,-1.81454 -6.25652,-4.81835c-1.10834,-2.75293 -1.54768,-5.94649 -2.5063,-8.78006c-1.49974,-4.43304 -2.74591,-8.35807 -3.38716,-13.01498c0,0 -0.3391,-2.47689 2.13779,-2.81599c2.4769,-0.3391 2.816,2.13779 2.816,2.13779c0.87851,6.45671 3.41401,12.23254 5.11307,18.49271c0.00838,0.03085 0.49718,4.07845 1.40492,3.8451c0.7298,-0.18761 1.6584,-4.47816 1.73291,-4.73075c0.75076,-2.54511 0.86554,-5.50995 1.65064,-7.962c0.58083,-1.81408 0.51318,-4.62538 2.3224,-5.22119c1.77269,-0.58379 3.37912,1.66994 4.80518,2.87393c0.75435,0.63687 1.04801,1.6734 1.57201,2.5101c0.79152,1.61442 2.16097,5.47775 4.27182,6.36687c2.30284,0.96998 3.61571,-3.683 3.94942,-4.48543c2.08844,-5.02179 3.43808,-11.02986 4.27017,-16.41102l-0.07694,0.21533c0,0 -0.3391,-2.47689 2.13779,-2.816z" fill="url(#color-7)" stroke="url(#color-8)"/></g><g stroke="none" stroke-width="0.5"><path d="M218.98248,177.61015c0.06546,1.91348 -2.09438,1.98737 -2.09438,1.98737l0.17254,-0.0867c-1.41502,0.42243 -2.8765,0.73396 -4.35098,0.94267c0.13167,1.32859 0.29618,2.63161 0.47339,3.88117c0.17212,1.21367 0.84246,4.64057 2.0069,5.3713c0.32155,0.20179 0.74903,-0.25228 1.14221,-0.29359c0.81189,-0.08531 1.63287,-0.05586 2.4493,-0.08379c2.27569,-0.07785 10.12498,0.81795 7.38562,-2.54149c0,0 -1.10613,-1.6368 0.75012,-2.63066c1.85625,-0.99385 2.96238,0.64294 2.96238,0.64294c0.48057,0.78768 1.33022,1.47077 1.4417,2.36304c0.79022,6.32505 -7.75518,5.83392 -12.4089,5.99312c-0.8973,0.03069 -5.22961,0.24159 -5.76036,-0.05746c-1.9635,-1.10634 -3.05875,-4.14191 -3.67676,-6.0027c-1.81662,-5.46972 -1.80998,-13.04112 -0.86771,-18.66245c0.619,-1.96429 0.80273,-3.70856 2.9963,-5.02229c2.63995,-1.58106 9.84971,-1.87685 12.75158,-0.75553c1.02479,0.39599 1.81721,1.15149 2.72581,1.72724l0.06132,-0.02214c0,0 1.96109,0.78965 1.05372,2.53416c-0.90736,1.74451 -2.86844,0.95486 -2.86844,0.95486l-0.84285,-0.38621c-2.4006,-1.66978 -2.96303,-1.45201 -6.05179,-1.34815c-0.83632,0.02812 -3.5028,-0.02755 -4.39425,0.44172c-0.78171,0.4115 -1.04502,2.06826 -1.20055,2.62617c-0.40623,2.35267 -0.49407,4.89446 -0.39782,7.43948c1.10393,-0.16663 2.19658,-0.40919 3.25342,-0.73452l1.06319,-0.11716c0,0 2.15983,-0.07389 2.22529,1.83959z" fill="url(#color-9)"/><path d="M171.04084,186.13983c-2.24143,-1.10724 -1.1342,-3.34867 -1.1342,-3.34867l0.68931,-1.27431c0.79585,-3.08666 2.21695,-5.88917 3.07661,-8.93048c1.07232,-3.79363 0.90725,-8.93828 3.43409,-12.23369c1.29766,-1.69237 2.66894,-4.24715 4.80147,-4.22828c1.72135,0.01524 2.04504,2.78298 2.86578,4.29614c0.6349,1.17054 1.48114,2.97836 1.87895,4.71325c1.28906,-1.91849 2.56083,-3.55587 4.06334,-5.13845l-0.27917,-0.19959l1.92985,-2.69943c0.4777,-0.69114 1.29253,-1.12528 2.19298,-1.07667c1.22709,0.06624 2.1996,1.00669 2.34617,2.18478l0.36916,2.55553l-0.08507,0.01228l0.10825,0.23327c-0.30418,4.88135 2.26308,8.96222 3.53155,13.56007c0.77398,2.80545 1.2718,5.44414 2.31802,8.18283c0,0 0.89072,2.33594 -1.44523,3.22666c-2.33595,0.89072 -3.22665,-1.44523 -3.22665,-1.44523c-1.09007,-2.86368 -1.65525,-5.66323 -2.45463,-8.59369c-1.03147,-3.78124 -2.75404,-7.15869 -3.43998,-10.87936c-0.85783,1.24465 -2.41594,3.76466 -3.12779,4.90361l-0.83826,2.52795c-0.32892,1.07202 -1.35457,1.82424 -2.52481,1.76105c-0.92526,-0.04995 -1.70578,-0.59695 -2.0966,-1.36807l-1.38378,-2.61643l0.04809,-0.02543c-0.06008,-0.08492 -0.11884,-0.17088 -0.17611,-0.258c-1.01632,-1.54569 -0.95928,-3.57594 -1.55352,-5.32778c-0.01639,-0.0483 -0.03382,-0.09645 -0.05213,-0.14449c-0.27455,0.57879 -0.55002,1.14337 -0.70361,1.62322c-0.81313,2.54036 -0.96275,5.25527 -1.69093,7.82126c-0.85515,3.01342 -2.26304,5.75451 -3.04311,8.80664l-1.04935,2.24533c0,0 -1.10724,2.24144 -3.34867,1.1342z" fill="url(#color-10)"/><path d="M245.79377,158.07754c-4.39998,3.02983 -3.81844,12.07045 -4.17883,16.85136c-0.13412,1.77918 -0.12185,3.73082 0.71978,5.30409c0.38303,0.71599 0.85896,1.42381 1.50541,1.91518c4.74654,3.60783 6.65207,-3.21174 7.56932,-6.98081c0.86229,-3.54322 0.99453,-6.99388 0.74734,-10.58719c-0.7496,-3.10017 -3.00932,-5.2973 -5.97144,-6.30804zM247.66009,153.43533l0.25841,0.14678c4.83421,1.88006 7.76273,5.18215 9.16963,10.17219c0.30883,4.31676 0.22331,8.38752 -0.83319,12.64645c-0.91893,3.70436 -3.26562,10.47865 -7.44928,11.82216c-4.03531,1.29587 -9.05218,-2.34069 -10.83616,-5.55174c-2.96995,-5.34574 -1.30239,-14.52563 0.05479,-20.26003c0.59744,-2.52432 1.71922,-5.98608 3.61846,-7.87584c0.83817,-0.83398 2.11417,-1.05948 3.17125,-1.58922c0,0 1.71071,-0.78752 2.84608,0.48926z" fill="url(#color-11)"/><path d="M301.51449,161.05199c2.4769,-0.3391 2.81599,2.13779 2.81599,2.13779l0.0629,1.23673c-0.60528,3.81963 -1.78221,7.46835 -2.6913,11.22562c-0.84825,3.50583 -1.78614,7.90731 -4.05638,10.81521c-3.23463,4.14316 -7.71818,3.77696 -11.25086,0.46781c-1.48636,-1.39231 -2.40227,-3.36683 -3.26743,-5.20514c-0.48342,2.89851 -1.88882,6.18052 -2.65945,8.43545c-0.36469,1.06711 -0.34924,2.35797 -1.10027,3.1992c-0.98819,1.10688 -2.33766,2.12053 -3.81042,2.30128c-4.13031,0.50689 -5.04718,-1.81454 -6.25652,-4.81835c-1.10834,-2.75293 -1.54768,-5.94649 -2.5063,-8.78006c-1.49974,-4.43304 -2.74591,-8.35807 -3.38716,-13.01498c0,0 -0.3391,-2.47689 2.13779,-2.816c2.4769,-0.3391 2.816,2.13779 2.816,2.13779c0.87851,6.45671 3.41401,12.23254 5.11306,18.49271c0.00838,0.03085 0.49718,4.07845 1.40492,3.8451c0.7298,-0.18761 1.6584,-4.47816 1.73291,-4.73075c0.75076,-2.54511 0.86554,-5.50995 1.65064,-7.96199c0.58083,-1.81408 0.51318,-4.62538 2.3224,-5.22119c1.77269,-0.58379 3.37912,1.66994 4.80518,2.87393c0.75435,0.63687 1.04801,1.6734 1.57201,2.5101c0.79152,1.61442 2.16097,5.47776 4.27182,6.36687c2.30284,0.96998 3.61572,-3.683 3.94943,-4.48543c2.08844,-5.02179 3.43808,-11.02986 4.27017,-16.41102l-0.07694,0.21533c0,0 -0.3391,-2.47689 2.1378,-2.816z" fill="url(#color-12)"/></g></g><path d="M175.96337,172.85646l-4.43686,2.38908" fill="none" stroke="url(#color-13)" stroke-width="3.5" stroke-linecap="round"/><path d="M172.72106,167.56635l2.90102,2.73038" fill="none" stroke="url(#color-14)" stroke-width="3.5" stroke-linecap="round"/><path d="M198.48897,172.85646l4.43686,1.36519" fill="none" stroke="url(#color-15)" stroke-width="3.5" stroke-linecap="round"/><path d="M197.46508,169.10219l3.24232,-2.38908" fill="none" stroke="url(#color-16)" stroke-width="3.5" stroke-linecap="round"/><path d="M205.82686,181.90083l3.92491,-2.04779" fill="none" stroke="url(#color-17)" stroke-width="3.5" stroke-linecap="round"/><path d="M209.23982,177.63461l-3.07167,-2.38908" fill="none" stroke="url(#color-18)" stroke-width="3.5" stroke-linecap="round"/><path d="M219.8161,178.69637l5.80204,1.87713" fill="none" stroke="url(#color-19)" stroke-width="3.5" stroke-linecap="round"/><path d="M238.59136,172.17386l-3.41296,2.21843" fill="none" stroke="url(#color-20)" stroke-width="3.5" stroke-linecap="round"/><path d="M235.00774,165.17727l3.75427,2.38908" fill="none" stroke="url(#color-21)" stroke-width="3.5" stroke-linecap="round"/><path d="M263.3354,187.87352l5.46075,-2.38908" fill="none" stroke="url(#color-22)" stroke-width="3.5" stroke-linecap="round"/><path d="M268.6255,181.38888l-5.2901,-3.24233" fill="none" stroke="url(#color-23)" stroke-width="3.5" stroke-linecap="round"/><path d="M305.48556,185.65509l-5.46075,-4.60751" fill="none" stroke="url(#color-24)" stroke-width="3.5" stroke-linecap="round"/><path d="M300.70741,176.95202l9.55631,-4.43686" fill="none" stroke="url(#color-25)" stroke-width="3.5" stroke-linecap="round"/><path d="M175.99541,172.89268l-4.43686,2.38908" fill="none" stroke="#ffffff" stroke-width="1" stroke-linecap="round"/><path d="M172.75309,167.60257l2.90103,2.73038" fill="none" stroke="#ffffff" stroke-width="1" stroke-linecap="round"/><path d="M198.52101,172.89268l4.43686,1.36519" fill="none" stroke="#ffffff" stroke-width="1" stroke-linecap="round"/><path d="M197.49712,169.13841l3.24232,-2.38908" fill="none" stroke="#ffffff" stroke-width="1" stroke-linecap="round"/><path d="M209.78381,179.88926l-3.92491,2.04779" fill="none" stroke="#ffffff" stroke-width="1" stroke-linecap="round"/><path d="M206.20019,175.28175l3.07167,2.38908" fill="none" stroke="#ffffff" stroke-width="1" stroke-linecap="round"/><path d="M219.84814,178.73259l5.80204,1.87713" fill="none" stroke="#ffffff" stroke-width="1" stroke-linecap="round"/><path d="M235.21043,174.42851l3.41297,-2.21843" fill="none" stroke="#ffffff" stroke-width="1.5" stroke-linecap="round"/><path d="M235.03978,165.21349l3.75427,2.38908" fill="none" stroke="#ffffff" stroke-width="1.5" stroke-linecap="round"/><path d="M268.82819,185.52066l-5.46075,2.38908" fill="none" stroke="#ffffff" stroke-width="1.5" stroke-linecap="round"/><path d="M263.36744,178.18277l5.2901,3.24233" fill="none" stroke="#ffffff" stroke-width="1.5" stroke-linecap="round"/><path d="M300.05685,181.0838l5.46075,4.60751" fill="none" stroke="#ffffff" stroke-width="1.5" stroke-linecap="round"/><path d="M310.29576,172.55138l-9.55631,4.43686" fill="none" stroke="#ffffff" stroke-width="1.5" stroke-linecap="round"/><path d="M219.62878,176.09964l5.80204,-1.87713" data-paper-data="{&quot;index&quot;:null}" fill="none" stroke="url(#color-26)" stroke-width="3.5" stroke-linecap="round"/><path d="M219.66082,176.06342l5.80204,-1.87713" data-paper-data="{&quot;index&quot;:null}" fill="none" stroke="#ffffff" stroke-width="1" stroke-linecap="round"/></g><path d="M241.30951,194.2565l-5.21964,-12.65377" fill="none" stroke="#392b20" stroke-width="0.5" stroke-linecap="round"/><path d="M261.93257,169.66453l-6.88202,-12.92135" fill="none" stroke="#392b20" stroke-width="0.5" stroke-linecap="round"/><path d="M274.57303,178.0915l-5.05618,-11.3764" fill="none" stroke="#392b20" stroke-width="0.5" stroke-linecap="round"/><path d="M173.03926,196.23127l-4.9569,-11.2069l13.14655,1.40086v1.2931z" fill="#392b20" stroke="none" stroke-width="0" stroke-linecap="butt"/><path d="M201.96167,196.27437l-4.9569,-11.2069l9.375,1.50862l1.40086,3.01724z" fill="#392b20" stroke="none" stroke-width="0" stroke-linecap="butt"/><path d="M303.96599,171.55454l0.96983,-10.56035l4.52586,10.56035z" fill="#392b20" stroke="none" stroke-width="0" stroke-linecap="butt"/></g></g></g></svg>