<svg version="1.1" xmlns="http://www.w3.org/2000/svg" xmlns:xlink="http://www.w3.org/1999/xlink" width="90.22644" height="42.6545" viewBox="0,0,90.22644,42.6545"><defs><radialGradient cx="37.94718" cy="21.22113" r="9.6897" gradientUnits="userSpaceOnUse" id="color-1"><stop offset="0" stop-color="#f09145"/><stop offset="1" stop-color="#392b20"/></radialGradient><radialGradient cx="37.94718" cy="21.22113" r="9.68969" gradientUnits="userSpaceOnUse" id="color-2"><stop offset="0" stop-color="#533925"/><stop offset="1" stop-color="#392b20"/></radialGradient><radialGradient cx="17.37323" cy="17.26329" r="10.43526" gradientUnits="userSpaceOnUse" id="color-3"><stop offset="0" stop-color="#f09145"/><stop offset="1" stop-color="#392b20"/></radialGradient><radialGradient cx="17.37321" cy="17.26328" r="10.43525" gradientUnits="userSpaceOnUse" id="color-4"><stop offset="0" stop-color="#533925"/><stop offset="1" stop-color="#392b20"/></radialGradient><radialGradient cx="54.7411" cy="16.87129" r="11.08729" gradientUnits="userSpaceOnUse" id="color-5"><stop offset="0" stop-color="#f09145"/><stop offset="1" stop-color="#392b20"/></radialGradient><radialGradient cx="54.7411" cy="16.87129" r="11.08729" gradientUnits="userSpaceOnUse" id="color-6"><stop offset="0" stop-color="#533925"/><stop offset="1" stop-color="#392b20"/></radialGradient><radialGradient cx="77.73801" cy="21.69149" r="12.70324" gradientUnits="userSpaceOnUse" id="color-7"><stop offset="0" stop-color="#f09145"/><stop offset="1" stop-color="#392b20"/></radialGradient><radialGradient cx="77.73801" cy="21.69149" r="12.70324" gradientUnits="userSpaceOnUse" id="color-8"><stop offset="0" stop-color="#533925"/><stop offset="1" stop-color="#392b20"/></radialGradient><radialGradient cx="37.88332" cy="21.15725" r="9.6897" gradientUnits="userSpaceOnUse" id="color-9"><stop offset="0" stop-color="#f09145"/><stop offset="1" stop-color="#392b20"/></radialGradient><radialGradient cx="17.30935" cy="17.1994" r="10.43526" gradientUnits="userSpaceOnUse" id="color-10"><stop offset="0" stop-color="#f09145"/><stop offset="1" stop-color="#392b20"/></radialGradient><radialGradient cx="54.67721" cy="16.8074" r="11.08729" gradientUnits="userSpaceOnUse" id="color-11"><stop offset="0" stop-color="#f09145"/><stop offset="1" stop-color="#392b20"/></radialGradient><radialGradient cx="77.67413" cy="21.62761" r="12.70324" gradientUnits="userSpaceOnUse" id="color-12"><stop offset="0" stop-color="#f09145"/><stop offset="1" stop-color="#392b20"/></radialGradient><radialGradient cx="9.42192" cy="18.94648" r="1.37463" gradientUnits="userSpaceOnUse" id="color-13"><stop offset="0" stop-color="#483323"/><stop offset="1" stop-color="#392b20"/></radialGradient><radialGradient cx="9.68628" cy="15.77424" r="1.08437" gradientUnits="userSpaceOnUse" id="color-14"><stop offset="0" stop-color="#483323"/><stop offset="1" stop-color="#392b20"/></radialGradient><radialGradient cx="26.12903" cy="18.62925" r="1.37464" gradientUnits="userSpaceOnUse" id="color-15"><stop offset="0" stop-color="#483323"/><stop offset="1" stop-color="#392b20"/></radialGradient><radialGradient cx="25.12449" cy="15.13979" r="1.08438" gradientUnits="userSpaceOnUse" id="color-16"><stop offset="0" stop-color="#483323"/><stop offset="1" stop-color="#392b20"/></radialGradient><radialGradient cx="30.51729" cy="23.17613" r="1.21602" gradientUnits="userSpaceOnUse" id="color-17"><stop offset="0" stop-color="#483323"/><stop offset="1" stop-color="#392b20"/></radialGradient><radialGradient cx="30.46442" cy="20.42686" r="1.08438" gradientUnits="userSpaceOnUse" id="color-18"><stop offset="0" stop-color="#483323"/><stop offset="1" stop-color="#392b20"/></radialGradient><radialGradient cx="39.7672" cy="22.40653" r="1.7976" gradientUnits="userSpaceOnUse" id="color-19"><stop offset="0" stop-color="#483323"/><stop offset="1" stop-color="#392b20"/></radialGradient><radialGradient cx="48.54616" cy="18.47064" r="1.08438" gradientUnits="userSpaceOnUse" id="color-20"><stop offset="0" stop-color="#483323"/><stop offset="1" stop-color="#392b20"/></radialGradient><radialGradient cx="48.54616" cy="14.18813" r="1.16315" gradientUnits="userSpaceOnUse" id="color-21"><stop offset="0" stop-color="#483323"/><stop offset="1" stop-color="#392b20"/></radialGradient><radialGradient cx="66.62789" cy="26.77132" r="1.69186" gradientUnits="userSpaceOnUse" id="color-22"><stop offset="0" stop-color="#483323"/><stop offset="1" stop-color="#392b20"/></radialGradient><radialGradient cx="66.57504" cy="22.48881" r="1.63899" gradientUnits="userSpaceOnUse" id="color-23"><stop offset="0" stop-color="#483323"/><stop offset="1" stop-color="#392b20"/></radialGradient><radialGradient cx="89.36226" cy="24.70937" r="1.69186" gradientUnits="userSpaceOnUse" id="color-24"><stop offset="0" stop-color="#483323"/><stop offset="1" stop-color="#392b20"/></radialGradient><radialGradient cx="91.05412" cy="19.36944" r="2.96076" gradientUnits="userSpaceOnUse" id="color-25"><stop offset="0" stop-color="#483323"/><stop offset="1" stop-color="#392b20"/></radialGradient><radialGradient cx="39.65113" cy="19.63433" r="1.79761" gradientUnits="userSpaceOnUse" id="color-26"><stop offset="0" stop-color="#483323"/><stop offset="1" stop-color="#392b20"/></radialGradient></defs><g transform="translate(-5.53842,1.67616)"><g data-paper-data="{&quot;isPaintingLayer&quot;:true}" fill-rule="nonzero" stroke-linejoin="miter" stroke-miterlimit="10" stroke-dasharray="" stroke-dashoffset="0" style="mix-blend-mode: normal"><g><path d="M61.5578,16.62073l0.17755,-4.57187l2.752,4.57187z" fill="#392b20" stroke="none" stroke-width="0" stroke-linecap="butt"/><path d="M52.19213,14.88964v-5.32645h5.19328v5.32645z" fill="#392b20" stroke="#392b20" stroke-width="3.5" stroke-linecap="butt"/><path d="M69.61355,20.80493l-0.66772,-6.20978l2.87119,6.61042z" fill="#392b20" stroke="none" stroke-width="0" stroke-linecap="butt"/><path d="M81.69925,31.42167v-5.80916h6.54364v5.80916z" fill="#392b20" stroke="none" stroke-width="0" stroke-linecap="butt"/><path d="M74.15403,34.35963v-4.07308h2.67087v4.07308z" fill="#392b20" stroke="#392b20" stroke-width="0.5" stroke-linecap="butt"/><path d="M50.85064,30.08623l-2.06994,-5.07466l10.08256,-10.01578l2.20347,15.95849z" fill="#392b20" stroke="none" stroke-width="0" stroke-linecap="butt"/><path d="M36.76176,35.22766v-4.94112h9.01421v4.94112z" fill="#392b20" stroke="none" stroke-width="0" stroke-linecap="butt"/><path d="M43.83959,33.69191l-1.33543,-2.87119l3.73922,-3.20505l2.73765,5.54207z" fill="#392b20" stroke="none" stroke-width="0" stroke-linecap="butt"/><path d="M20.20231,19.9369v-6.34333h2.33702v6.34333z" fill="#392b20" stroke="none" stroke-width="0" stroke-linecap="butt"/><path d="M91.30674,11.87701l3.046,7.13633" fill="none" stroke="#392b20" stroke-width="0.5" stroke-linecap="round"/><g fill="#392b20" stroke="#392b20" stroke-linecap="butt"><g stroke-width="3.5"><path d="M40.53885,28.05321c0.04056,1.18567 -1.29777,1.23147 -1.29777,1.23147l0.10692,-0.05373c-0.87681,0.26176 -1.78241,0.4548 -2.69606,0.58412c0.08159,0.82325 0.18353,1.63065 0.29333,2.40494c0.10666,0.75205 0.52203,2.8755 1.24356,3.32829c0.19924,0.12504 0.46413,-0.15633 0.70776,-0.18192c0.50308,-0.05286 1.0118,-0.03461 1.5177,-0.05192c1.41011,-0.04824 6.27387,0.50683 4.57645,-1.57482c0,0 -0.68541,-1.01423 0.46481,-1.63007c1.15022,-0.61584 1.83562,0.39839 1.83562,0.39839c0.29778,0.48808 0.82426,0.91135 0.89334,1.46424c0.48965,3.91927 -4.80544,3.61496 -7.68909,3.7136c-0.556,0.01902 -3.2405,0.1497 -3.56937,-0.03561c-1.21667,-0.68554 -1.89533,-2.5665 -2.27828,-3.71953c-1.12566,-3.38928 -1.12154,-8.08084 -0.53767,-11.56406c0.38356,-1.21716 0.49741,-2.29799 1.85663,-3.11203c1.63582,-0.97969 6.1033,-1.16298 7.90143,-0.46816c0.635,0.24537 1.12602,0.71351 1.68903,1.07027l0.038,-0.01372c0,0 1.21518,0.4893 0.65293,1.57027c-0.56224,1.08097 -1.77741,0.59167 -1.77741,0.59167l-0.52226,-0.23931c-1.48752,-1.03467 -1.83602,-0.89973 -3.74995,-0.83537c-0.51822,0.01742 -2.17048,-0.01708 -2.72286,0.2737c-0.48438,0.25499 -0.64753,1.28159 -0.74391,1.62729c-0.25172,1.45782 -0.30615,3.03282 -0.24651,4.60982c0.68404,-0.10325 1.36109,-0.25355 2.01596,-0.45514l0.6588,-0.0726c0,0 1.33832,-0.04579 1.37888,1.13989z"/><path d="M10.83213,33.33857c-1.38889,-0.6861 -0.70279,-2.07498 -0.70279,-2.07498l0.42713,-0.78961c0.49315,-1.91263 1.37371,-3.64919 1.9064,-5.53372c0.66446,-2.3507 0.56217,-5.53854 2.12791,-7.58053c0.80409,-1.04866 1.65379,-2.63172 2.9752,-2.62002c1.06662,0.00944 1.2672,1.72445 1.77576,2.66207c0.39341,0.72531 0.91778,1.84552 1.16428,2.92054c0.79875,-1.18878 1.5868,-2.20338 2.51782,-3.18401l-0.17299,-0.12367l1.19582,-1.67268c0.29601,-0.42826 0.80091,-0.69727 1.35887,-0.66715c0.76036,0.04105 1.36297,0.62379 1.45379,1.35378l0.22874,1.58352l-0.05271,0.00761l0.06707,0.14454c-0.18848,3.0247 1.4023,5.55338 2.1883,8.40241c0.47959,1.73838 0.78806,3.37343 1.43635,5.07044c0,0 0.55193,1.44745 -0.89553,1.99937c-1.44746,0.55193 -1.99938,-0.89553 -1.99938,-0.89553c-0.67545,-1.77446 -1.02566,-3.50918 -1.52099,-5.32502c-0.63914,-2.34302 -1.70652,-4.43584 -2.13156,-6.74132c-0.53155,0.77124 -1.49702,2.33274 -1.93811,3.03849l-0.51942,1.56642c-0.20381,0.66427 -0.83935,1.13038 -1.56448,1.09123c-0.57333,-0.03095 -1.05697,-0.36989 -1.29914,-0.84772l-0.85745,-1.62126l0.0298,-0.01575c-0.03723,-0.05262 -0.07364,-0.10589 -0.10912,-0.15987c-0.62975,-0.95778 -0.59441,-2.21581 -0.96262,-3.30132c-0.01016,-0.02993 -0.02096,-0.05976 -0.03231,-0.08953c-0.17012,0.35864 -0.34082,0.70848 -0.43599,1.00581c-0.50385,1.57411 -0.59656,3.2564 -1.04777,4.8464c-0.52989,1.86725 -1.40228,3.56575 -1.88564,5.45698l-0.65023,1.39131c0,0 -0.68609,1.38889 -2.07498,0.7028z"/><path d="M57.15228,15.94996c-2.72642,1.87741 -2.36606,7.47938 -2.58938,10.44184c-0.08311,1.10245 -0.07551,2.31177 0.44601,3.28664c0.23734,0.44366 0.53224,0.88226 0.93282,1.18673c2.94116,2.23557 4.12191,-1.99013 4.69028,-4.32561c0.53431,-2.19553 0.61625,-4.33371 0.46309,-6.56028c-0.46449,-1.92101 -1.86471,-3.28243 -3.70016,-3.90873zM58.30874,13.07344l0.16012,0.09095c2.99549,1.16497 4.81012,3.21109 5.6819,6.30313c0.19137,2.67485 0.13837,5.19727 -0.51628,7.83629c-0.56941,2.29538 -2.02352,6.49303 -4.6159,7.32552c-2.50046,0.80298 -5.60912,-1.4504 -6.71455,-3.4401c-1.84031,-3.31245 -0.80702,-9.00071 0.03395,-12.554c0.3702,-1.56418 1.06531,-3.70924 2.24216,-4.88021c0.51937,-0.51677 1.31003,-0.6565 1.96504,-0.98475c0,0 1.06003,-0.48799 1.76356,0.30316z"/><path d="M91.67926,17.79306c1.5348,-0.21012 1.74491,1.32466 1.74491,1.32466l0.03898,0.76633c-0.37506,2.36681 -1.10434,4.62771 -1.66765,6.95589c-0.52561,2.17236 -1.10677,4.89971 -2.51351,6.70157c-2.00432,2.56728 -4.78252,2.34037 -6.97152,0.28988c-0.92101,-0.86274 -1.48855,-2.08624 -2.02464,-3.22533c-0.29955,1.79604 -1.1704,3.82972 -1.64791,5.22697c-0.22598,0.66123 -0.21641,1.4611 -0.68178,1.98237c-0.61232,0.68587 -1.44852,1.31397 -2.3611,1.42597c-2.55932,0.31409 -3.12745,-1.12436 -3.87681,-2.98565c-0.68677,-1.70584 -0.95901,-3.6847 -1.55301,-5.4405c-0.9293,-2.74691 -1.70149,-5.17902 -2.09883,-8.06465c0,0 -0.21012,-1.53479 1.32467,-1.74491c1.5348,-0.21012 1.74491,1.32466 1.74491,1.32466c0.54436,4.00085 2.11547,7.57981 3.16828,11.45888c0.0052,0.01911 0.30807,2.52719 0.87055,2.38259c0.45221,-0.11625 1.02761,-2.77486 1.07379,-2.93138c0.4652,-1.57706 0.53633,-3.4142 1.02281,-4.93359c0.3599,-1.12409 0.31799,-2.86608 1.43906,-3.23527c1.09843,-0.36174 2.09385,1.03477 2.9775,1.78081c0.46743,0.39463 0.64939,1.03691 0.97409,1.55537c0.49046,1.00036 1.33903,3.39426 2.64701,3.94519c1.42694,0.60104 2.24045,-2.28214 2.44723,-2.77936c1.29409,-3.11172 2.13039,-6.83458 2.64599,-10.16898l-0.04767,0.13343c0,0 -0.21013,-1.53479 1.32467,-1.74492z"/></g><g stroke-width="0.5"><path d="M40.47496,27.98933c0.04056,1.18567 -1.29777,1.23146 -1.29777,1.23146l0.10692,-0.05372c-0.87681,0.26176 -1.78241,0.4548 -2.69606,0.58412c0.08159,0.82325 0.18352,1.63065 0.29333,2.40494c0.10666,0.75205 0.52203,2.8755 1.24357,3.32829c0.19924,0.12504 0.46413,-0.15632 0.70776,-0.18192c0.50308,-0.05286 1.0118,-0.03462 1.51769,-0.05192c1.41011,-0.04824 6.27388,0.50684 4.57645,-1.57482c0,0 -0.68541,-1.01423 0.4648,-1.63007c1.15022,-0.61584 1.83562,0.3984 1.83562,0.3984c0.29778,0.48808 0.82426,0.91135 0.89334,1.46424c0.48965,3.91927 -4.80545,3.61495 -7.68909,3.71359c-0.556,0.01902 -3.2405,0.1497 -3.56937,-0.0356c-1.21667,-0.68554 -1.89533,-2.5665 -2.27828,-3.71953c-1.12566,-3.38928 -1.12154,-8.08084 -0.53767,-11.56406c0.38356,-1.21716 0.4974,-2.29798 1.85663,-3.11202c1.63582,-0.97969 6.10332,-1.16298 7.90144,-0.46816c0.635,0.24537 1.12602,0.71351 1.68903,1.07027l0.038,-0.01372c0,0 1.21517,0.4893 0.65293,1.57028c-0.56224,1.08097 -1.77741,0.59167 -1.77741,0.59167l-0.52226,-0.23932c-1.48752,-1.03467 -1.83602,-0.89972 -3.74995,-0.83537c-0.51822,0.01742 -2.17049,-0.01707 -2.72287,0.2737c-0.48438,0.25499 -0.64754,1.28158 -0.74392,1.62729c-0.25172,1.45782 -0.30615,3.03282 -0.2465,4.60983c0.68404,-0.10325 1.36109,-0.25355 2.01596,-0.45514l0.6588,-0.0726c0,0 1.33833,-0.04578 1.37889,1.13989z"/><path d="M10.76825,33.27468c-1.38889,-0.6861 -0.7028,-2.07498 -0.7028,-2.07498l0.42713,-0.78962c0.49315,-1.91263 1.37372,-3.64918 1.90639,-5.53371c0.66446,-2.3507 0.56217,-5.53855 2.12791,-7.58053c0.80409,-1.04866 1.65379,-2.63172 2.9752,-2.62002c1.06662,0.00944 1.2672,1.72445 1.77576,2.66208c0.39341,0.72531 0.91778,1.84552 1.16428,2.92053c0.79875,-1.18878 1.5868,-2.20336 2.51782,-3.184l-0.17299,-0.12367l1.19582,-1.67269c0.29601,-0.42826 0.8009,-0.69726 1.35886,-0.66714c0.76036,0.04105 1.36297,0.62379 1.45379,1.35379l0.22874,1.58352l-0.0527,0.00761l0.06708,0.14455c-0.18848,3.0247 1.4023,5.55338 2.1883,8.40241c0.47959,1.73838 0.78806,3.37342 1.43634,5.07044c0,0 0.55193,1.44745 -0.89552,1.99938c-1.44746,0.55193 -1.99938,-0.89552 -1.99938,-0.89552c-0.67545,-1.77446 -1.02566,-3.50919 -1.52099,-5.32503c-0.63914,-2.34302 -1.70652,-4.43584 -2.13156,-6.74133c-0.53155,0.77124 -1.49702,2.33275 -1.93811,3.03849l-0.51942,1.56643c-0.20381,0.66427 -0.83935,1.13038 -1.56448,1.09122c-0.57333,-0.03095 -1.05698,-0.36989 -1.29915,-0.84772l-0.85745,-1.62125l0.0298,-0.01576c-0.03723,-0.05262 -0.07363,-0.10589 -0.10912,-0.15987c-0.62975,-0.95778 -0.59442,-2.2158 -0.96263,-3.30132c-0.01016,-0.02993 -0.02096,-0.05977 -0.0323,-0.08953c-0.17012,0.35864 -0.34081,0.70848 -0.43598,1.00582c-0.50385,1.57411 -0.59657,3.25639 -1.04778,4.84639c-0.52989,1.86725 -1.40228,3.56575 -1.88565,5.45698l-0.65022,1.3913c0,0 -0.68609,1.38889 -2.07498,0.7028z"/><path d="M57.08841,15.88607c-2.72642,1.87741 -2.36607,7.47938 -2.58938,10.44184c-0.08311,1.10245 -0.0755,2.31177 0.44601,3.28664c0.23734,0.44366 0.53225,0.88226 0.93282,1.18673c2.94116,2.23557 4.12191,-1.99013 4.69028,-4.32561c0.53431,-2.19553 0.61625,-4.33372 0.46308,-6.56028c-0.46449,-1.92101 -1.8647,-3.28244 -3.70016,-3.90873zM58.24485,13.00956l0.16012,0.09095c2.99549,1.16497 4.81012,3.21109 5.6819,6.30313c0.19137,2.67485 0.13837,5.19727 -0.51628,7.83629c-0.56941,2.29538 -2.02352,6.49303 -4.6159,7.32552c-2.50046,0.80298 -5.60912,-1.4504 -6.71455,-3.4401c-1.84031,-3.31245 -0.80702,-9.00071 0.03395,-12.554c0.3702,-1.56418 1.06531,-3.70923 2.24216,-4.8802c0.51937,-0.51677 1.31003,-0.6565 1.96504,-0.98475c0,0 1.06003,-0.48798 1.76356,0.30317z"/><path d="M91.61538,17.72916c1.5348,-0.21012 1.74491,1.32466 1.74491,1.32466l0.03897,0.76633c-0.37506,2.36681 -1.10433,4.62771 -1.66764,6.95589c-0.52561,2.17236 -1.10677,4.89971 -2.51351,6.70157c-2.00432,2.56728 -4.78252,2.34037 -6.97152,0.28987c-0.92101,-0.86274 -1.48855,-2.08623 -2.02464,-3.22533c-0.29955,1.79604 -1.17039,3.82972 -1.64791,5.22697c-0.22598,0.66123 -0.21641,1.4611 -0.68178,1.98237c-0.61232,0.68587 -1.44853,1.31397 -2.36111,1.42597c-2.55932,0.31409 -3.12744,-1.12436 -3.8768,-2.98565c-0.68677,-1.70584 -0.95901,-3.6847 -1.55301,-5.44051c-0.9293,-2.74691 -1.70149,-5.17902 -2.09883,-8.06465c0,0 -0.21012,-1.53479 1.32467,-1.74491c1.5348,-0.21012 1.74491,1.32467 1.74491,1.32467c0.54436,4.00085 2.11547,7.57981 3.16828,11.45888c0.0052,0.01911 0.30808,2.52719 0.87055,2.38259c0.45221,-0.11625 1.02761,-2.77486 1.07379,-2.93138c0.4652,-1.57706 0.53633,-3.41421 1.02281,-4.9336c0.3599,-1.12409 0.31799,-2.86608 1.43906,-3.23527c1.09843,-0.36174 2.09385,1.03477 2.9775,1.78081c0.46743,0.39463 0.64939,1.03692 0.97409,1.55537c0.49046,1.00036 1.33903,3.39426 2.647,3.94519c1.42694,0.60104 2.24046,-2.28215 2.44724,-2.77937c1.29409,-3.11172 2.13038,-6.83458 2.64598,-10.16898l-0.04767,0.13343c0,0 -0.21012,-1.53479 1.32467,-1.74491z"/></g></g><path d="M11.06919,26.52411l2.74927,-1.48037" fill="#392b20" stroke="#392b20" stroke-width="3.5" stroke-linecap="round"/><path d="M11.80938,21.76576l1.7976,1.69186" fill="#392b20" stroke="#392b20" stroke-width="3.5" stroke-linecap="round"/><path d="M27.7763,25.04373l2.74927,0.84593" fill="#392b20" stroke="#392b20" stroke-width="3.5" stroke-linecap="round"/><path d="M29.15093,21.23705l-2.00908,1.48037" fill="#392b20" stroke="#392b20" stroke-width="3.5" stroke-linecap="round"/><path d="M32.53464,26.52411l1.90334,1.48038" fill="#392b20" stroke="#392b20" stroke-width="3.5" stroke-linecap="round"/><path d="M44.58671,29.82555l-3.5952,-1.16315" fill="#392b20" stroke="#392b20" stroke-width="3.5" stroke-linecap="round"/><path d="M50.51066,25.99541l2.11482,-1.37464" fill="#392b20" stroke="#392b20" stroke-width="3.5" stroke-linecap="round"/><path d="M50.40491,20.28537l2.32631,1.48038" fill="#392b20" stroke="#392b20" stroke-width="3.5" stroke-linecap="round"/><path d="M71.23592,30.33079l-3.27798,-2.00908" fill="#392b20" stroke="#392b20" stroke-width="3.5" stroke-linecap="round"/><path d="M11.08905,26.54655l2.74927,-1.48037" fill="#392b20" stroke="#392b20" stroke-width="1" stroke-linecap="round"/><path d="M11.82923,21.7882l1.7976,1.69186" fill="#392b20" stroke="#392b20" stroke-width="1" stroke-linecap="round"/><path d="M30.54543,25.91211l-2.74927,-0.84593" fill="#392b20" stroke="#392b20" stroke-width="1" stroke-linecap="round"/><path d="M27.1617,22.73987l2.00908,-1.48037" fill="#392b20" stroke="#392b20" stroke-width="1" stroke-linecap="round"/><path d="M34.77507,29.40157l-2.43205,1.2689" fill="#392b20" stroke="#392b20" stroke-width="1" stroke-linecap="round"/><path d="M32.55451,26.54655l1.90334,1.48038" fill="#392b20" stroke="#392b20" stroke-width="1" stroke-linecap="round"/><path d="M41.01136,28.68484l3.59519,1.16315" fill="#392b20" stroke="#392b20" stroke-width="1" stroke-linecap="round"/><path d="M52.64533,24.64321l-2.11482,1.37464" fill="#392b20" stroke="#392b20" stroke-width="1.5" stroke-linecap="round"/><path d="M52.75106,21.7882l-2.3263,-1.48037" fill="#392b20" stroke="#392b20" stroke-width="1.5" stroke-linecap="round"/><path d="M67.97781,28.34416l3.27797,2.00908" fill="#392b20" stroke="#392b20" stroke-width="1.5" stroke-linecap="round"/><path d="M40.87544,27.05335l3.5952,-1.16315" data-paper-data="{&quot;index&quot;:null}" fill="#392b20" stroke="#392b20" stroke-width="3.5" stroke-linecap="round"/><path d="M40.89529,27.0309l3.59519,-1.16315" data-paper-data="{&quot;index&quot;:null}" fill="#392b20" stroke="#392b20" stroke-width="1" stroke-linecap="round"/><g><g stroke-linecap="butt"><g stroke-width="3.5"><path d="M37.51693,21.21577c0.04056,1.18567 -1.29776,1.23146 -1.29776,1.23146l0.1069,-0.05372c-0.87681,0.26176 -1.78241,0.4548 -2.69606,0.58412c0.08159,0.82325 0.18353,1.63065 0.29333,2.40494c0.10666,0.75204 0.52202,2.8755 1.24357,3.32829c0.19924,0.12504 0.46413,-0.15633 0.70776,-0.18192c0.50308,-0.05286 1.0118,-0.03461 1.51769,-0.05192c1.41011,-0.04824 6.27388,0.50684 4.57645,-1.57482c0,0 -0.68539,-1.01423 0.46481,-1.63007c1.15022,-0.61584 1.83561,0.39839 1.83561,0.39839c0.29778,0.48808 0.82426,0.91135 0.89334,1.46424c0.48965,3.91927 -4.80544,3.61495 -7.68909,3.7136c-0.556,0.01901 -3.2405,0.1497 -3.56937,-0.03561c-1.21667,-0.68554 -1.89533,-2.56651 -2.27828,-3.71953c-1.12565,-3.38928 -1.12154,-8.08084 -0.53767,-11.56406c0.38356,-1.21716 0.49741,-2.29798 1.85664,-3.11202c1.63582,-0.97969 6.10331,-1.16298 7.90143,-0.46816c0.635,0.24537 1.12602,0.71351 1.68903,1.07027l0.03799,-0.01371c0,0 1.21518,0.4893 0.65293,1.57028c-0.56224,1.08098 -1.77741,0.59167 -1.77741,0.59167l-0.52226,-0.23931c-1.48752,-1.03467 -1.83602,-0.89973 -3.74995,-0.83537c-0.51822,0.01742 -2.17049,-0.01707 -2.72287,0.27371c-0.48438,0.25498 -0.64753,1.28158 -0.74391,1.62729c-0.25172,1.45782 -0.30615,3.03282 -0.24651,4.60983c0.68404,-0.10325 1.36109,-0.25355 2.01596,-0.45514l0.6588,-0.0726c0,0 1.33833,-0.04578 1.37889,1.13989z" fill="url(#color-1)" stroke="url(#color-2)"/><path d="M7.81023,26.50112c-1.38889,-0.6861 -0.7028,-2.07499 -0.7028,-2.07499l0.42713,-0.78961c0.49315,-1.91263 1.37372,-3.64919 1.9064,-5.53372c0.66446,-2.3507 0.56217,-5.53854 2.12791,-7.58052c0.80409,-1.04866 1.65379,-2.63172 2.9752,-2.62002c1.06663,0.00945 1.26719,1.72445 1.77576,2.66208c0.39341,0.72532 0.91778,1.84552 1.16428,2.92053c0.79875,-1.18878 1.5868,-2.20337 2.51782,-3.18401l-0.17299,-0.12368l1.19582,-1.67268c0.29601,-0.42826 0.80091,-0.69727 1.35886,-0.66715c0.76036,0.04104 1.36296,0.62379 1.45379,1.35379l0.22875,1.58351l-0.05271,0.00761l0.06708,0.14454c-0.18848,3.02469 1.4023,5.55338 2.1883,8.40241c0.47959,1.73838 0.78806,3.37343 1.43634,5.07044c0,0 0.55193,1.44745 -0.89552,1.99937c-1.44746,0.55193 -1.99938,-0.89552 -1.99938,-0.89552c-0.67545,-1.77446 -1.02566,-3.50918 -1.52099,-5.32502c-0.63914,-2.34302 -1.70652,-4.43584 -2.13156,-6.74132c-0.53155,0.77124 -1.49702,2.33274 -1.93811,3.03848l-0.51942,1.56643c-0.20381,0.66427 -0.83936,1.13038 -1.56449,1.09123c-0.57333,-0.03095 -1.05697,-0.3699 -1.29914,-0.84772l-0.85745,-1.62125l0.0298,-0.01576c-0.03723,-0.05262 -0.07364,-0.10589 -0.10912,-0.15986c-0.62975,-0.95777 -0.59442,-2.21581 -0.96263,-3.30133c-0.01015,-0.02993 -0.02095,-0.05977 -0.0323,-0.08953c-0.17013,0.35864 -0.34082,0.70848 -0.43599,1.00582c-0.50385,1.57412 -0.59656,3.25639 -1.04777,4.84639c-0.52989,1.86725 -1.40228,3.56575 -1.88565,5.45698l-0.65022,1.3913c0,0 -0.6861,1.3889 -2.07498,0.7028z" fill="url(#color-3)" stroke="url(#color-4)"/><path d="M54.13038,9.11251c-2.72642,1.87742 -2.36607,7.47937 -2.58938,10.44183c-0.08311,1.10245 -0.0755,2.31178 0.44602,3.28665c0.23734,0.44366 0.53224,0.88226 0.93281,1.18673c2.94116,2.23557 4.12191,-1.99014 4.69028,-4.32561c0.53431,-2.19553 0.61626,-4.33371 0.46309,-6.56028c-0.46449,-1.92101 -1.86471,-3.28244 -3.70017,-3.90873zM55.28683,6.236l0.16013,0.09095c2.99549,1.16497 4.81012,3.21108 5.6819,6.30313c0.19136,2.67485 0.13837,5.19727 -0.51628,7.83629c-0.56941,2.29538 -2.02352,6.49303 -4.61589,7.32552c-2.50046,0.80298 -5.60913,-1.4504 -6.71456,-3.4401c-1.84031,-3.31245 -0.80701,-9.00071 0.03395,-12.554c0.3702,-1.56418 1.06531,-3.70923 2.24216,-4.8802c0.51937,-0.51677 1.31002,-0.65651 1.96504,-0.98475c0,0 1.06003,-0.48798 1.76356,0.30317z" fill="url(#color-5)" stroke="url(#color-6)"/><path d="M88.65736,10.95561c1.5348,-0.21012 1.7449,1.32467 1.7449,1.32467l0.03898,0.76633c-0.37506,2.36681 -1.10434,4.62772 -1.66765,6.95588c-0.52561,2.17236 -1.10676,4.89972 -2.5135,6.70157c-2.00432,2.56728 -4.78252,2.34037 -6.97152,0.28988c-0.92101,-0.86274 -1.48856,-2.08623 -2.02465,-3.22533c-0.29955,1.79604 -1.17039,3.82971 -1.64791,5.22696c-0.22598,0.66123 -0.21641,1.4611 -0.68178,1.98237c-0.61232,0.68587 -1.44851,1.31397 -2.3611,1.42598c-2.55932,0.31409 -3.12745,-1.12437 -3.87681,-2.98566c-0.68677,-1.70584 -0.95902,-3.6847 -1.55302,-5.4405c-0.9293,-2.74691 -1.70148,-5.17902 -2.09883,-8.06464c0,0 -0.21012,-1.53479 1.32467,-1.74491c1.5348,-0.21012 1.74491,1.32467 1.74491,1.32467c0.54436,4.00085 2.11547,7.57981 3.16828,11.45888c0.0052,0.01911 0.30807,2.52718 0.87055,2.38259c0.45221,-0.11625 1.02761,-2.77486 1.07379,-2.93137c0.4652,-1.57706 0.53633,-3.41421 1.02281,-4.9336c0.3599,-1.12409 0.31799,-2.86609 1.43906,-3.23528c1.09843,-0.36174 2.09385,1.03477 2.9775,1.78082c0.46743,0.39463 0.64939,1.03691 0.97409,1.55537c0.49046,1.00036 1.33903,3.39426 2.64701,3.94519c1.42694,0.60104 2.24045,-2.28215 2.44723,-2.77937c1.29409,-3.11172 2.13039,-6.83458 2.64599,-10.16898l-0.04767,0.13342c0,0 -0.21013,-1.53479 1.32466,-1.74491z" fill="url(#color-7)" stroke="url(#color-8)"/></g><g stroke="none" stroke-width="0.5"><path d="M37.45306,21.15188c0.04056,1.18567 -1.29777,1.23146 -1.29777,1.23146l0.10692,-0.05373c-0.87681,0.26176 -1.78241,0.45479 -2.69606,0.58412c0.08159,0.82325 0.18353,1.63067 0.29333,2.40495c0.10666,0.75204 0.52202,2.8755 1.24356,3.32829c0.19924,0.12504 0.46413,-0.15633 0.70777,-0.18192c0.50308,-0.05286 1.01179,-0.03461 1.51769,-0.05192c1.41011,-0.04824 6.27388,0.50684 4.57645,-1.57482c0,0 -0.68541,-1.01423 0.46481,-1.63007c1.15022,-0.61584 1.83562,0.39839 1.83562,0.39839c0.29778,0.48808 0.82426,0.91136 0.89334,1.46425c0.48965,3.91927 -4.80545,3.61495 -7.6891,3.71359c-0.556,0.01901 -3.2405,0.1497 -3.56937,-0.03561c-1.21667,-0.68554 -1.89534,-2.5665 -2.27828,-3.71953c-1.12566,-3.38928 -1.12154,-8.08084 -0.53767,-11.56406c0.38356,-1.21716 0.49741,-2.29799 1.85664,-3.11203c1.63582,-0.97969 6.1033,-1.16297 7.90143,-0.46815c0.635,0.24537 1.12602,0.71351 1.68903,1.07027l0.038,-0.01372c0,0 1.21518,0.4893 0.65293,1.57028c-0.56224,1.08098 -1.77741,0.59168 -1.77741,0.59168l-0.52227,-0.23932c-1.48752,-1.03467 -1.83602,-0.89973 -3.74995,-0.83537c-0.51822,0.01742 -2.17048,-0.01707 -2.72286,0.27371c-0.48438,0.25498 -0.64754,1.28158 -0.74392,1.62729c-0.25172,1.45782 -0.30615,3.03281 -0.2465,4.60982c0.68404,-0.10325 1.36109,-0.25355 2.01596,-0.45514l0.65879,-0.07259c0,0 1.33833,-0.04578 1.37889,1.13989z" fill="url(#color-9)"/><path d="M7.74634,26.43724c-1.38889,-0.6861 -0.7028,-2.07498 -0.7028,-2.07498l0.42713,-0.78962c0.49315,-1.91263 1.37372,-3.64918 1.90641,-5.53371c0.66446,-2.3507 0.56217,-5.53854 2.12791,-7.58052c0.80409,-1.04866 1.65379,-2.63172 2.9752,-2.62003c1.06663,0.00945 1.26719,1.72445 1.77576,2.66208c0.39341,0.72532 0.91778,1.84551 1.16428,2.92053c0.79875,-1.18878 1.5868,-2.20337 2.51782,-3.184l-0.17299,-0.12368l1.19582,-1.67269c0.29601,-0.42826 0.80091,-0.69727 1.35887,-0.66715c0.76036,0.04105 1.36296,0.62379 1.45379,1.35379l0.22875,1.58352l-0.05272,0.00761l0.06708,0.14455c-0.18848,3.02469 1.4023,5.55338 2.1883,8.4024c0.47959,1.73838 0.78806,3.37343 1.43634,5.07044c0,0 0.55193,1.44745 -0.89553,1.99938c-1.44746,0.55193 -1.99937,-0.89552 -1.99937,-0.89552c-0.67545,-1.77446 -1.02566,-3.50918 -1.52099,-5.32502c-0.63914,-2.34302 -1.70652,-4.43583 -2.13156,-6.74132c-0.53155,0.77124 -1.49702,2.33274 -1.93811,3.03849l-0.51942,1.56643c-0.20381,0.66427 -0.83936,1.13038 -1.56449,1.09122c-0.57333,-0.03095 -1.05697,-0.36989 -1.29914,-0.84772l-0.85745,-1.62125l0.0298,-0.01576c-0.03723,-0.05262 -0.07364,-0.10588 -0.10913,-0.15986c-0.62975,-0.95777 -0.59441,-2.21581 -0.96263,-3.30132c-0.01015,-0.02993 -0.02096,-0.05976 -0.0323,-0.08953c-0.17013,0.35864 -0.34081,0.70848 -0.43598,1.00582c-0.50385,1.57411 -0.59657,3.2564 -1.04778,4.8464c-0.52989,1.86725 -1.40228,3.56575 -1.88564,5.45698l-0.65022,1.3913c0,0 -0.68609,1.3889 -2.07498,0.7028z" fill="url(#color-10)"/><path d="M54.0665,9.04863c-2.72642,1.87741 -2.36607,7.47937 -2.58938,10.44183c-0.08311,1.10245 -0.0755,2.31178 0.44601,3.28665c0.23734,0.44366 0.53224,0.88226 0.93281,1.18673c2.94116,2.23557 4.12191,-1.99013 4.69028,-4.32561c0.53431,-2.19553 0.61626,-4.33371 0.46308,-6.56028c-0.46449,-1.921 -1.86471,-3.28243 -3.70016,-3.90873zM55.22295,6.17212l0.16012,0.09095c2.99549,1.16496 4.81012,3.21109 5.6819,6.30313c0.19136,2.67485 0.13837,5.19727 -0.51628,7.83629c-0.56941,2.29538 -2.02352,6.49302 -4.61589,7.32552c-2.50046,0.80298 -5.60913,-1.4504 -6.71456,-3.4401c-1.84031,-3.31245 -0.80702,-9.0007 0.03395,-12.55399c0.3702,-1.56418 1.0653,-3.70923 2.24215,-4.88021c0.51937,-0.51677 1.31003,-0.6565 1.96504,-0.98475c0,0 1.06003,-0.48799 1.76355,0.30316z" fill="url(#color-11)"/><path d="M88.59347,10.89173c1.5348,-0.21012 1.74491,1.32467 1.74491,1.32467l0.03898,0.76633c-0.37506,2.36681 -1.10434,4.62772 -1.66765,6.95588c-0.52561,2.17236 -1.10676,4.89972 -2.5135,6.70158c-2.00432,2.56728 -4.78252,2.34037 -6.97152,0.28987c-0.92101,-0.86274 -1.48855,-2.08623 -2.02464,-3.22533c-0.29955,1.79604 -1.17039,3.82972 -1.64791,5.22697c-0.22598,0.66123 -0.21641,1.4611 -0.68178,1.98236c-0.61232,0.68587 -1.44851,1.31397 -2.3611,1.42597c-2.55932,0.31409 -3.12745,-1.12437 -3.87681,-2.98566c-0.68677,-1.70584 -0.95902,-3.6847 -1.55302,-5.4405c-0.9293,-2.7469 -1.70148,-5.17902 -2.09883,-8.06464c0,0 -0.21012,-1.53479 1.32467,-1.74492c1.5348,-0.21012 1.74491,1.32466 1.74491,1.32466c0.54436,4.00086 2.11547,7.57981 3.16827,11.45888c0.0052,0.01911 0.30807,2.52718 0.87055,2.38259c0.45221,-0.11625 1.02761,-2.77486 1.07379,-2.93137c0.4652,-1.57706 0.53633,-3.4142 1.02281,-4.9336c0.3599,-1.12409 0.31799,-2.86608 1.43906,-3.23527c1.09843,-0.36174 2.09385,1.03477 2.9775,1.78081c0.46743,0.39463 0.64939,1.03692 0.97409,1.55537c0.49046,1.00036 1.33903,3.39425 2.64701,3.94518c1.42694,0.60104 2.24045,-2.28214 2.44723,-2.77936c1.29409,-3.11172 2.13039,-6.83458 2.64599,-10.16898l-0.04767,0.13343c0,0 -0.21013,-1.53479 1.32467,-1.74491z" fill="url(#color-12)"/></g></g><path d="M8.04729,19.68667l2.74927,-1.48038" fill="none" stroke="url(#color-13)" stroke-width="3.5" stroke-linecap="round"/><path d="M10.58507,16.62018l-1.7976,-1.69187" fill="none" stroke="url(#color-14)" stroke-width="3.5" stroke-linecap="round"/><path d="M27.50366,19.05222l-2.74927,-0.84593" fill="none" stroke="url(#color-15)" stroke-width="3.5" stroke-linecap="round"/><path d="M26.12903,14.3996l-2.00908,1.48038" fill="none" stroke="url(#color-16)" stroke-width="3.5" stroke-linecap="round"/><path d="M31.73331,22.54167l-2.43204,1.2689" fill="none" stroke="url(#color-17)" stroke-width="3.5" stroke-linecap="round"/><path d="M29.51275,19.68667l1.90334,1.48037" fill="none" stroke="url(#color-18)" stroke-width="3.5" stroke-linecap="round"/><path d="M37.96961,21.82495l3.5952,1.16315" fill="none" stroke="url(#color-19)" stroke-width="3.5" stroke-linecap="round"/><path d="M49.60357,17.78332l-2.11482,1.37464" fill="none" stroke="url(#color-20)" stroke-width="3.5" stroke-linecap="round"/><path d="M49.70931,14.92831l-2.3263,-1.48038" fill="none" stroke="url(#color-21)" stroke-width="3.5" stroke-linecap="round"/><path d="M68.31976,26.03113l-3.38371,1.48038" fill="none" stroke="url(#color-22)" stroke-width="3.5" stroke-linecap="round"/><path d="M68.21403,23.49335l-3.27797,-2.00909" fill="none" stroke="url(#color-23)" stroke-width="3.5" stroke-linecap="round"/><path d="M91.05412,26.13688l-3.38372,-2.85501" fill="none" stroke="url(#color-24)" stroke-width="3.5" stroke-linecap="round"/><path d="M94.01487,17.9948l-5.9215,2.74927" fill="none" stroke="url(#color-25)" stroke-width="3.5" stroke-linecap="round"/><path d="M10.81641,18.22873l-2.74927,1.48038" fill="none" stroke="#ffffff" stroke-width="1" stroke-linecap="round"/><path d="M10.60493,16.64261l-1.79761,-1.69186" fill="none" stroke="#ffffff" stroke-width="1" stroke-linecap="round"/><path d="M24.77425,18.22873l2.74927,0.84593" fill="none" stroke="#ffffff" stroke-width="1" stroke-linecap="round"/><path d="M24.1398,15.90243l2.00908,-1.48038" fill="none" stroke="#ffffff" stroke-width="1" stroke-linecap="round"/><path d="M31.75317,22.56412l-2.43204,1.2689" fill="none" stroke="#ffffff" stroke-width="1" stroke-linecap="round"/><path d="M29.5326,19.7091l1.90334,1.48038" fill="none" stroke="#ffffff" stroke-width="1" stroke-linecap="round"/><path d="M41.58466,23.01054l-3.5952,-1.16315" fill="none" stroke="#ffffff" stroke-width="1" stroke-linecap="round"/><path d="M49.62343,17.80576l-2.11483,1.37464" fill="none" stroke="#ffffff" stroke-width="1.5" stroke-linecap="round"/><path d="M47.40286,13.47037l2.32631,1.48038" fill="none" stroke="#ffffff" stroke-width="1.5" stroke-linecap="round"/><path d="M64.95591,27.53396l3.38371,-1.48038" fill="none" stroke="#ffffff" stroke-width="1.5" stroke-linecap="round"/><path d="M68.23388,23.51579l-3.27797,-2.00909" fill="none" stroke="#ffffff" stroke-width="1.5" stroke-linecap="round"/><path d="M87.69025,23.30431l3.38372,2.85501" fill="none" stroke="#ffffff" stroke-width="1.5" stroke-linecap="round"/><path d="M88.11322,20.76651l5.92151,-2.74927" fill="none" stroke="#ffffff" stroke-width="1.5" stroke-linecap="round"/><path d="M41.44873,19.05275l-3.5952,1.16315" data-paper-data="{&quot;index&quot;:null}" fill="none" stroke="url(#color-26)" stroke-width="3.5" stroke-linecap="round"/><path d="M41.46858,19.0303l-3.59519,1.16315" data-paper-data="{&quot;index&quot;:null}" fill="none" stroke="#ffffff" stroke-width="1" stroke-linecap="round"/></g><path d="M48.05355,23.62586l3.23431,7.84082" fill="none" stroke="#392b20" stroke-width="0.5" stroke-linecap="round"/><path d="M64.0668,16.22843l-4.2644,-8.00663" fill="none" stroke="#392b20" stroke-width="0.5" stroke-linecap="round"/><path d="M68.76634,14.40084l3.13303,7.04931" fill="none" stroke="#392b20" stroke-width="0.5" stroke-linecap="round"/><path d="M8.98465,32.69033l-3.07151,-6.94428l8.14617,0.86803v0.80126z" fill="#392b20" stroke="none" stroke-width="0" stroke-linecap="butt"/><path d="M26.90623,32.71704l-3.07151,-6.94428l5.80916,0.9348l0.86803,1.86961z" fill="#392b20" stroke="none" stroke-width="0" stroke-linecap="butt"/><path d="M90.11253,17.39956l0.60094,-6.54365l2.80442,6.54365z" fill="#392b20" stroke="none" stroke-width="0" stroke-linecap="butt"/></g></g></g></svg>