<svg version="1.1" xmlns="http://www.w3.org/2000/svg" xmlns:xlink="http://www.w3.org/1999/xlink" width="110.66668" height="44.1389" viewBox="0,0,110.66668,44.1389"><g transform="translate(-188.13236,-310.90025)"><g data-paper-data="{&quot;isPaintingLayer&quot;:true}" fill-rule="nonzero" stroke-linecap="butt" stroke-linejoin="miter" stroke-miterlimit="10" stroke-dasharray="" stroke-dashoffset="0" style="mix-blend-mode: normal"><g fill="#ffffff" stroke="#000000" stroke-width="4"><g data-paper-data="{&quot;index&quot;:null}"><path d="M296.79903,322.48359c0,0 0,13.26173 0,20.83334c0,4.17708 -4.46033,9.72222 -9.02778,9.72222c-14.37673,0 -54.30556,0 -54.30556,0v-30.55556z" data-paper-data="{&quot;index&quot;:null}"/><path d="M253.4657,322.48359v30.55556c0,0 -39.92883,0 -54.30556,0c-4.56745,0 -9.02778,-5.54514 -9.02778,-9.72222c0,-7.5716 0,-20.83334 0,-20.83334z"/></g><g><path d="M233.4657,343.45581v-30.55556c0,0 39.92883,0 54.30556,0c4.56745,0 9.02778,5.54514 9.02778,9.72222c0,7.5716 0,20.83334 0,20.83334z" data-paper-data="{&quot;index&quot;:null}"/><path d="M190.13237,343.45581c0,0 0,-13.26173 0,-20.83334c0,-4.17708 4.46033,-9.72222 9.02778,-9.72222c14.37673,0 54.30556,0 54.30556,0v30.55556z"/></g></g><g fill="#ffffff" stroke="none" stroke-width="0"><g data-paper-data="{&quot;index&quot;:null}"><path d="M296.79903,322.48359c0,0 0,13.26173 0,20.83334c0,4.17708 -4.46033,9.72222 -9.02778,9.72222c-14.37673,0 -54.30556,0 -54.30556,0v-30.55556z" data-paper-data="{&quot;index&quot;:null}"/><path d="M253.4657,322.48359v30.55556c0,0 -39.92883,0 -54.30556,0c-4.56745,0 -9.02778,-5.54514 -9.02778,-9.72222c0,-7.5716 0,-20.83334 0,-20.83334z"/></g><g><path d="M233.4657,343.45581v-30.55556c0,0 39.92883,0 54.30556,0c4.56745,0 9.02778,5.54514 9.02778,9.72222c0,7.5716 0,20.83334 0,20.83334z" data-paper-data="{&quot;index&quot;:null}"/><path d="M190.13237,343.45581c0,0 0,-13.26173 0,-20.83334c0,-4.17708 4.46033,-9.72222 9.02778,-9.72222c14.37673,0 54.30556,0 54.30556,0v30.55556z"/></g></g><text transform="translate(204.88603,339.41414) scale(0.45833,0.45833)" font-size="40" xml:space="preserve" fill="#000000" fill-rule="nonzero" stroke="none" stroke-width="1" stroke-linecap="butt" stroke-linejoin="miter" stroke-miterlimit="10" stroke-dasharray="" stroke-dashoffset="0" font-family="Sans Serif" font-weight="normal" text-anchor="start" style="mix-blend-mode: normal"><tspan x="0" dy="0">Hide list</tspan></text></g></g></svg>